<svg xmlns="http://www.w3.org/2000/svg" viewBox="0 0 150 70">
  <path d="M126.6 68.6h4.6V53c0-5 2.7-8.8 8.2-8.8 3.5 0 5.6 2.2 5.6 5.6v18.7h4.6V50.3c0-6-2.2-10-9.5-10-4 0-7 1.5-9 5v-4.5h-4.3v27.8zm-27-14c0-6.6 4-10.4 8.7-10.4 4.8 0 8.6 3.7 8.6 10.5 0 6.7-4 10.4-8.7 10.4-4.7.2-8.6-3.6-8.6-10.3m-4.8 0c0 8 4.6 14.5 13.3 14.5s13.4-6.4 13.4-14.5c0-8-4.7-14.5-13.4-14.5S95 46.6 95 54.7M93.5 41h-4.8l-7.5 23-8-23h-5l10.3 27.6h5l10-27.7zm-26 24l-1.3.2c-1.4 0-1.4-1-1.4-3V47.7c0-6.5-5.5-7.6-10.5-7.6-6.2 0-11.5 2.4-11.7 9.3h4.6c.2-4 3-5.2 7-5.2 2.8 0 6 .6 6 4.6 0 3.3-4.2 3-9.2 4-4.7 1-9.4 2.2-9.4 8.5 0 5.5 4 7.8 9.2 7.8 4 0 7.2-1.3 9.7-4.3 0 3 1.5 4.3 4 4.3 1.3 0 2.4-.3 3.2-.8V65zm-7.3-6c0 2.4-2.5 6.2-8.5 6.2-2.8 0-5.4-1-5.4-4 0-3.5 2.6-4.5 5.6-5 3-.6 6.5-.7 8.2-2V59zm-28 9.6h4.5V30.3h-4.6v38.3zm-32 0H27v-4.3H5.5V51h20v-4.3h-20v-12h21.3v-4.4H.4v38.3z" fill="#221E1F"/>
  <path fill="#66A8D8" d="M87.5 38c7.8-12.5 14-20.7 18.4-26-.8 0-1.6.2-2.3.4C96.2 23 87.5 38 87.5 38zM121.8 9c0-1.5-.2-2.6-.3-3.3 0-.7-.4-1.8-.6-2.3-.4-1-1-1.7-1.3-2-.4 0-.7-.2-.7-.2l-3.7-.4c-2 0-5.5 3.7-5.5 3.7-1.2 1.3-2.5 3-4 5l2.6-.6c5.7-6.5 8.2-7.3 8.2-7.3 1 1.5 1.3 4.4 1.3 6.6v3c-1 7.6-2.4 13.3-4 17.4-2.6 7.3-5.3 9.6-5.3 9.6 5.3 0 8.4 2.4 8.4 2.4v-.2c4-12.8 4.8-22 4.8-28V8.8z"/>
  <path fill="#2B2E67" d="M122 9s-.2 0 0 0v3.4c1.3.5 2.5 1.2 3.5 2.2C129 18 131.2 25 127 38.2c0 0 1-1.6 2.6-7C132 23 132.4 11 122 9zM111.8 8.4c-1 0-2.2.2-3.3.4-1 0-1.7.3-2.6.5-2.4.5-5 1.3-8 2.5-19 7-38.4 26.4-38.4 26.4s22.6-20.3 44-25.8l2.3-.5c2.4-.6 4.8-1 7.2-1 1 0 2.8 0 4.5.4v-3c-1.5-.2-3.6-.2-6 0z"/>
</svg>
