<svg xmlns="http://www.w3.org/2000/svg" viewBox="113 0 137 154"><g fill="#03233f"><path d="M209.8 92.8c-2 0-3.7-.4-5.3-1-5.2-2.2-8.8-7.2-8.8-13 0-2.3.5-4.4 1.4-6.2 2.5-4.8 7.3-8 13-8 7.7 0 14 6.3 14 14 0 8-6.3 14.2-14 14.2zm-5.2 39.3l-19.2 7.5c-1 .4-2.2 0-2.6-1.2-.4-1 0-2.2 1-2.6l19.3-7.4c1-.3 2.4.2 2.8 1.3.4 1 0 2.2-1 2.6zm42.7-70c0-1-1-2.2-2-2.5h-.5V59h-1.2c-.2 0-.3 0-.5-.2h-.7l-.6-.2h-.5l-.6-.2h-.7c-.4 0-.6 0-.8-.2h-1.8V58h-2c-.4-.2-.6-.2-1-.2h-2.2v-.2h-3.5l-1.3-.2h-15.8c-.5.2-1 .2-1.5.2h-1.8c-5.8.4-11.2 1-16 1.7-12 1.7-20 4-20 4-1 .5-1.8 1.7-1.7 2.8l2 38.6v.2l.2.4v.3h.2v.2l.2.2h1.5s12.7-4.3 33-6l6 15.6-22.7 8.7-26.7 10.2-19-48.5-18-47.5 49.3-19L184 39c-.4.4-1 .8-1.6 1-18 10.3-29.5 21.5-29.5 21.5-1 .7-1 2.2-.7 3L167 90.2l-1.2-24c-.3-3 1.8-6 4.8-7 .3 0 3.4-1 8.6-2.2 0-1 .3-2.2.6-3.3 1.2-3.5 3.6-6.4 6.8-8l.3-.2c2-1 4-1.5 6.3-1.5 5.4 0 10.2 3 12.6 7.7l.6 1.6h1.2c4.6-.3 9-.4 13.3-.4 5.7 0 10 0 13.8.3L219.2 26c-.5-.8-2-1.5-3-1.2 0 0-7.2 1.4-23 9.5l-10.7-28c-2-5-7.7-7.6-12.7-5.7l-50 19.2c-5.2 2-7.7 7.7-5.8 12.7l44 115c2 5.2 7.7 7.7 12.8 5.8l50-19.2c5-1.7 7.7-7.4 5.7-12.5l-8.5-22h15.2c.4.2.8.2 1 .2h1.3c.4 0 .7 0 1 .2h4l1.5.4 1.4.2c.3 0 .5 0 .7.2.5 0 .8 0 1 .2h1.4l.6.3h.3s.2 0 .3.2h.4v.2h.7c0-.2 0-.2.2-.2v-.2s0 0 0-.2.3 0 .3-.3v-.4l-2-38.4"/><path d="M209.8 89c5.7 0 10.3-4.6 10.3-10.3 0-5.7-4.4-10.3-10-10.3-5.8 0-10.4 4.6-10.4 10.3 0 2.7 1 5 2.6 6.8 2 2 4.7 3.5 7.8 3.5"/></g></svg>