<svg xmlns="http://www.w3.org/2000/svg" viewBox="0 0 834 245">
  <g fill="#252525">
    <path d="M.4 85c-2 9 5 24 18.6 33.4 9.7-7.4 22.3-11.7 37.2-12.7 10-.7 21 2.4 32.3 8.7l13.3-6.6C86 87.4 68 70 44 68.5 24.6 67.3 9.4 73.8.4 85zm163.4 57c-10.2.7-32.3-8.6-32.3-8.6L118 140c16 20.8 27 39.4 59 40.5 14.5.5 33.3-6.2 42.7-17.4 1.7-8.2-5-24-19-33.2-9.5 7.6-22 12-37 12.7z"/>
    <path d="M3.7 71.7C13 64.7 25 61.7 44 62c27 .5 46.2 20.5 62.6 41.4 12.8 16.5 35.4 33.3 56.2 32 34.6-2.3 46.7-22 56.2-47.7C206.5 36.7 161.3 1 108.8 1c-46.6 0-88 28.6-105 70.7zM112.3 143C100 127 82 111 56 111c-33 2-44.7 20-50.7 33.5L0 158.8C12.4 209.4 57.6 245 110 245c46.4 0 87.8-28.8 105-70.6-6.4 4.6-30 12.6-42 11-32.6-4-44.2-21.4-60.7-42.4zM292.6 41.8v164.8H329V72h44.3c10.3 0 15 4.6 15 14.7v120H425V88.2c0-31-11.5-46.2-34.6-46.2l-97.8-.2zM453.4 103v43.3c0 41.8 20.6 60.5 66.5 60.5h58V177h-62c-17.6 0-26-10-26-28.7V99c0-18 10-27.7 29-27.7 23 0 26.2 14 26.2 28v9.8h-36v28H580v-32c0-43-19-63-61.6-63-43 0-65 21-65 61zm308-15.4c0-9 2.5-15.7 14-15.7h50V42h-42c-49 0-58 16.6-58 45 0 30.5 5 39.3 42.5 48.5 25 6 29 11.3 29 23.2 0 10.6-2 17.6-13.6 17.6h-60V206H783c42.3-1.5 50.6-19 50.6-48.4 0-31.6-3.8-36.5-48.3-48.5-22.5-5.3-24.2-7-24.2-21zM645 71.6h54v-27h-53.6V0l-36.7 5.3V166c0 24.8 13.6 40.5 34 40.5h58.6v-29.8H662c-11 0-16.5-5.8-16.5-16.3"/>
  </g>
</svg>
