<svg xmlns="http://www.w3.org/2000/svg" xmlns:xlink="http://www.w3.org/1999/xlink" contentStyleType="text/css" data-diagram-type="SEQUENCE" height="1121px" preserveAspectRatio="none" style="width:678px;height:1121px;background:#FFFFFF;" version="1.1" viewBox="0 0 678 1121" width="678px" zoomAndPan="magnify"><defs/><g><g><title>Browser</title><rect fill="#000000" fill-opacity="0.00000" height="1048.5469" width="8" x="37.0195" y="36.2969"/><line style="stroke:#181818;stroke-width:0.5;stroke-dasharray:5,5;" x1="40.5195" x2="40.5195" y1="36.2969" y2="1084.8438"/></g><g><title/><rect fill="#ADD8E6" height="609.0547" style="stroke:#181818;stroke-width:1;" width="10" x="35.5195" y="152.8281"/></g><g><title>Merchant</title><rect fill="#000000" fill-opacity="0.00000" height="1048.5469" width="8" x="258.1802" y="36.2969"/><line style="stroke:#181818;stroke-width:0.5;stroke-dasharray:5,5;" x1="261.6802" x2="261.6802" y1="36.2969" y2="1084.8438"/></g><g><title/><rect fill="#FFFFFF" height="87.3984" style="stroke:#181818;stroke-width:1;" width="10" x="256.6802" y="65.4297"/></g><g><title>Scanpay</title><rect fill="#000000" fill-opacity="0.00000" height="1048.5469" width="8" x="419.8271" y="36.2969"/><line style="stroke:#181818;stroke-width:0.5;stroke-dasharray:5,5;" x1="423.3271" x2="423.3271" y1="36.2969" y2="1084.8438"/></g><g><title/><rect fill="#FFFFFF" height="29.1328" style="stroke:#181818;stroke-width:1;" width="10" x="418.3271" y="94.5625"/></g><g><title/><rect fill="#FFFFFF" height="138.7969" style="stroke:#181818;stroke-width:1;" width="10" x="418.3271" y="181.9609"/></g><g><title/><rect fill="#FFFFFF" height="245.1953" style="stroke:#181818;stroke-width:1;" width="10" x="418.3271" y="458.4219"/></g><g><title/><rect fill="#FFFFFF" height="29.1328" style="stroke:#181818;stroke-width:1;" width="10" x="418.3271" y="812.6484"/></g><g><title/><rect fill="#FFFFFF" height="152.7969" style="stroke:#181818;stroke-width:1;" width="10" x="418.3271" y="884.9141"/></g><g><title>Apple Pay</title><rect fill="#000000" fill-opacity="0.00000" height="1048.5469" width="8" x="544.5625" y="36.2969"/><line style="stroke:#181818;stroke-width:0.5;stroke-dasharray:5,5;" x1="548.0625" x2="548.0625" y1="36.2969" y2="1084.8438"/></g><g><title/><rect fill="#FFFFFF" height="61.3984" style="stroke:#181818;stroke-width:1;" width="10" x="543.0625" y="230.2266"/></g><g><title/><rect fill="#FFFFFF" height="79.3984" style="stroke:#181818;stroke-width:1;" width="10" x="543.0625" y="349.8906"/></g><g><title>Acquirer</title><rect fill="#000000" fill-opacity="0.00000" height="1048.5469" width="8" x="632.8921" y="36.2969"/><line style="stroke:#181818;stroke-width:0.5;stroke-dasharray:5,5;" x1="636.3921" x2="636.3921" y1="36.2969" y2="1084.8438"/></g><g><title/><rect fill="#FFFFFF" height="144.7969" style="stroke:#181818;stroke-width:1;" width="10" x="631.3921" y="529.6875"/></g><g><title/><rect fill="#FFFFFF" height="94.5313" style="stroke:#181818;stroke-width:1;" width="10" x="631.3921" y="914.0469"/></g><rect fill="#E2E2F0" height="30.2969" rx="2.5" ry="2.5" style="stroke:#181818;stroke-width:0.5;" width="71.0391" x="5" y="5"/><text fill="#000000" font-family="sans-serif" font-size="14" lengthAdjust="spacing" textLength="57.0391" x="12" y="24.9951">Browser</text><rect fill="#E2E2F0" height="30.2969" rx="2.5" ry="2.5" style="stroke:#181818;stroke-width:0.5;" width="79.96" x="221.7002" y="5"/><text fill="#000000" font-family="sans-serif" font-size="14" lengthAdjust="spacing" textLength="65.96" x="228.7002" y="24.9951">Merchant</text><rect fill="#E2E2F0" height="30.2969" rx="2.5" ry="2.5" style="stroke:#181818;stroke-width:0.5;" width="73.7871" x="386.4336" y="5"/><text fill="#000000" font-family="sans-serif" font-size="14" lengthAdjust="spacing" textLength="59.7871" x="393.4336" y="24.9951">Scanpay</text><rect fill="#E2E2F0" height="30.2969" rx="2.5" ry="2.5" style="stroke:#181818;stroke-width:0.5;" width="83.6104" x="506.2573" y="5"/><text fill="#000000" font-family="sans-serif" font-size="14" lengthAdjust="spacing" textLength="69.6104" x="513.2573" y="24.9951">Apple Pay</text><rect fill="#E2E2F0" height="30.2969" rx="2.5" ry="2.5" style="stroke:#181818;stroke-width:0.5;" width="73.0488" x="599.8677" y="5"/><text fill="#000000" font-family="sans-serif" font-size="14" lengthAdjust="spacing" textLength="59.0488" x="606.8677" y="24.9951">Acquirer</text><rect fill="#E2E2F0" height="30.2969" rx="2.5" ry="2.5" style="stroke:#181818;stroke-width:0.5;" width="71.0391" x="5" y="1084.8438"/><text fill="#000000" font-family="sans-serif" font-size="14" lengthAdjust="spacing" textLength="57.0391" x="12" y="1104.8389">Browser</text><rect fill="#E2E2F0" height="30.2969" rx="2.5" ry="2.5" style="stroke:#181818;stroke-width:0.5;" width="79.96" x="221.7002" y="1084.8438"/><text fill="#000000" font-family="sans-serif" font-size="14" lengthAdjust="spacing" textLength="65.96" x="228.7002" y="1104.8389">Merchant</text><rect fill="#E2E2F0" height="30.2969" rx="2.5" ry="2.5" style="stroke:#181818;stroke-width:0.5;" width="73.7871" x="386.4336" y="1084.8438"/><text fill="#000000" font-family="sans-serif" font-size="14" lengthAdjust="spacing" textLength="59.7871" x="393.4336" y="1104.8389">Scanpay</text><rect fill="#E2E2F0" height="30.2969" rx="2.5" ry="2.5" style="stroke:#181818;stroke-width:0.5;" width="83.6104" x="506.2573" y="1084.8438"/><text fill="#000000" font-family="sans-serif" font-size="14" lengthAdjust="spacing" textLength="69.6104" x="513.2573" y="1104.8389">Apple Pay</text><rect fill="#E2E2F0" height="30.2969" rx="2.5" ry="2.5" style="stroke:#181818;stroke-width:0.5;" width="73.0488" x="599.8677" y="1084.8438"/><text fill="#000000" font-family="sans-serif" font-size="14" lengthAdjust="spacing" textLength="59.0488" x="606.8677" y="1104.8389">Acquirer</text><polygon fill="#181818" points="244.6802,61.4297,254.6802,65.4297,244.6802,69.4297,248.6802,65.4297" style="stroke:#181818;stroke-width:1;"/><line style="stroke:#181818;stroke-width:1;" x1="40.5195" x2="250.6802" y1="65.4297" y2="65.4297"/><text fill="#000000" font-family="sans-serif" font-size="13" lengthAdjust="spacing" textLength="97.2524" x="47.5195" y="60.3638">Go to payment</text><polygon fill="#181818" points="406.3271,90.5625,416.3271,94.5625,406.3271,98.5625,410.3271,94.5625" style="stroke:#181818;stroke-width:1;"/><line style="stroke:#181818;stroke-width:1;" x1="266.6802" x2="412.3271" y1="94.5625" y2="94.5625"/><text fill="#000000" font-family="sans-serif" font-size="13" lengthAdjust="spacing" textLength="132.647" x="273.6802" y="89.4966">Create payment link</text><polygon fill="#181818" points="277.6802,119.6953,267.6802,123.6953,277.6802,127.6953,273.6802,123.6953" style="stroke:#181818;stroke-width:1;"/><line style="stroke:#181818;stroke-width:1;stroke-dasharray:2,2;" x1="271.6802" x2="417.3271" y1="123.6953" y2="123.6953"/><text fill="#000000" font-family="sans-serif" font-size="13" lengthAdjust="spacing" textLength="25.7905" x="283.6802" y="118.6294">URL</text><polygon fill="#181818" points="56.5195,148.8281,46.5195,152.8281,56.5195,156.8281,52.5195,152.8281" style="stroke:#181818;stroke-width:1;"/><line style="stroke:#181818;stroke-width:1;stroke-dasharray:2,2;" x1="50.5195" x2="255.6802" y1="152.8281" y2="152.8281"/><text fill="#000000" font-family="sans-serif" font-size="13" font-style="italic" lengthAdjust="spacing" textLength="187.1606" x="62.5195" y="147.7622">Redirect to payment window</text><polygon fill="#181818" points="406.3271,177.9609,416.3271,181.9609,406.3271,185.9609,410.3271,181.9609" style="stroke:#181818;stroke-width:1;"/><line style="stroke:#181818;stroke-width:1;" x1="45.5195" x2="412.3271" y1="181.9609" y2="181.9609"/><text fill="#000000" font-family="sans-serif" font-size="13" lengthAdjust="spacing" textLength="164.5059" x="52.5195" y="176.895">Create Apple Pay session</text><path d="M50.5195,194.9609 L50.5195,264.9609 L350.5195,264.9609 L350.5195,204.9609 L340.5195,194.9609 L50.5195,194.9609" fill="#FEFFDD" style="stroke:#181818;stroke-width:0.5;"/><path d="M340.5195,194.9609 L340.5195,204.9609 L350.5195,204.9609 L340.5195,194.9609" fill="#FEFFDD" style="stroke:#181818;stroke-width:0.5;"/><text fill="#000000" font-family="sans-serif" font-size="13" lengthAdjust="spacing" textLength="270.9688" x="56.5195" y="212.0278">For security reasons this request must be</text><text fill="#000000" font-family="sans-serif" font-size="13" lengthAdjust="spacing" textLength="279.8682" x="56.5195" y="227.1606">precipitated by a button click. The browser</text><text fill="#000000" font-family="sans-serif" font-size="13" lengthAdjust="spacing" textLength="276.415" x="56.5195" y="242.2935">enforces this very strictly, and this is what</text><text fill="#000000" font-family="sans-serif" font-size="13" lengthAdjust="spacing" textLength="260.0381" x="56.5195" y="257.4263">informs the somewhat kludgy interface.</text><polygon fill="#181818" points="531.0625,226.2266,541.0625,230.2266,531.0625,234.2266,535.0625,230.2266" style="stroke:#181818;stroke-width:1;"/><line style="stroke:#181818;stroke-width:1;" x1="428.3271" x2="537.0625" y1="230.2266" y2="230.2266"/><text fill="#000000" font-family="sans-serif" font-size="13" lengthAdjust="spacing" textLength="95.7354" x="435.3271" y="225.1606">Create session</text><polygon fill="#181818" points="439.3271,287.625,429.3271,291.625,439.3271,295.625,435.3271,291.625" style="stroke:#181818;stroke-width:1;"/><line style="stroke:#181818;stroke-width:1;stroke-dasharray:2,2;" x1="433.3271" x2="542.0625" y1="291.625" y2="291.625"/><text fill="#000000" font-family="sans-serif" font-size="13" lengthAdjust="spacing" textLength="83.0146" x="445.3271" y="286.5591">Session data</text><polygon fill="#181818" points="56.5195,316.7578,46.5195,320.7578,56.5195,324.7578,52.5195,320.7578" style="stroke:#181818;stroke-width:1;"/><line style="stroke:#181818;stroke-width:1;stroke-dasharray:2,2;" x1="50.5195" x2="417.3271" y1="320.7578" y2="320.7578"/><text fill="#000000" font-family="sans-serif" font-size="13" lengthAdjust="spacing" textLength="83.0146" x="62.5195" y="315.6919">Session data</text><polygon fill="#181818" points="531.0625,345.8906,541.0625,349.8906,531.0625,353.8906,535.0625,349.8906" style="stroke:#181818;stroke-width:1;"/><line style="stroke:#181818;stroke-width:1;" x1="45.5195" x2="537.0625" y1="349.8906" y2="349.8906"/><text fill="#000000" font-family="sans-serif" font-size="13" lengthAdjust="spacing" textLength="64.1177" x="52.5195" y="344.8247">Get token</text><path d="M50.5195,362.8906 L50.5195,402.8906 L493.5195,402.8906 L493.5195,372.8906 L483.5195,362.8906 L50.5195,362.8906" fill="#FEFFDD" style="stroke:#181818;stroke-width:0.5;"/><path d="M483.5195,362.8906 L483.5195,372.8906 L493.5195,372.8906 L483.5195,362.8906" fill="#FEFFDD" style="stroke:#181818;stroke-width:0.5;"/><text fill="#000000" font-family="sans-serif" font-size="13" lengthAdjust="spacing" textLength="422.9951" x="56.5195" y="379.9575">A popup appears from the browser itself, prompting the payer to</text><text fill="#000000" font-family="sans-serif" font-size="13" lengthAdjust="spacing" textLength="398.6772" x="56.5195" y="395.0903">verify the payment details before sending the payment data.</text><polygon fill="#181818" points="56.5195,425.2891,46.5195,429.2891,56.5195,433.2891,52.5195,429.2891" style="stroke:#181818;stroke-width:1;"/><line style="stroke:#181818;stroke-width:1;stroke-dasharray:2,2;" x1="50.5195" x2="542.0625" y1="429.2891" y2="429.2891"/><text fill="#000000" font-family="sans-serif" font-size="13" lengthAdjust="spacing" textLength="183.0347" x="62.5195" y="424.2231">Encrypted and signed token</text><polygon fill="#181818" points="406.3271,454.4219,416.3271,458.4219,406.3271,462.4219,410.3271,458.4219" style="stroke:#181818;stroke-width:1;"/><line style="stroke:#181818;stroke-width:1;" x1="45.5195" x2="412.3271" y1="458.4219" y2="458.4219"/><text fill="#000000" font-family="sans-serif" font-size="13" lengthAdjust="spacing" textLength="183.0347" x="52.5195" y="453.356">Encrypted and signed token</text><line style="stroke:#181818;stroke-width:1;" x1="428.3271" x2="470.3271" y1="487.5547" y2="487.5547"/><line style="stroke:#181818;stroke-width:1;" x1="470.3271" x2="470.3271" y1="487.5547" y2="500.5547"/><line style="stroke:#181818;stroke-width:1;" x1="429.3271" x2="470.3271" y1="500.5547" y2="500.5547"/><polygon fill="#181818" points="439.3271,496.5547,429.3271,500.5547,439.3271,504.5547,435.3271,500.5547" style="stroke:#181818;stroke-width:1;"/><text fill="#000000" font-family="sans-serif" font-size="13" lengthAdjust="spacing" textLength="92.4917" x="435.3271" y="482.4888">Decrypt token</text><polygon fill="#181818" points="619.3921,525.6875,629.3921,529.6875,619.3921,533.6875,623.3921,529.6875" style="stroke:#181818;stroke-width:1;"/><line style="stroke:#181818;stroke-width:1;" x1="428.3271" x2="625.3921" y1="529.6875" y2="529.6875"/><text fill="#000000" font-family="sans-serif" font-size="13" lengthAdjust="spacing" textLength="105.0029" x="435.3271" y="524.6216">Card token data</text><path d="M129.9336,542.6875 L129.9336,597.6875 L392.9336,597.6875 L392.9336,552.6875 L382.9336,542.6875 L129.9336,542.6875" fill="#FFA07A" style="stroke:#181818;stroke-width:0.5;"/><path d="M382.9336,542.6875 L382.9336,552.6875 L392.9336,552.6875 L382.9336,542.6875" fill="#FFA07A" style="stroke:#181818;stroke-width:0.5;"/><text fill="#000000" font-family="sans-serif" font-size="13" lengthAdjust="spacing" textLength="209.9805" x="135.9336" y="559.7544">Strong Customer Authentication</text><text fill="#000000" font-family="sans-serif" font-size="13" lengthAdjust="spacing" textLength="149.9634" x="135.9336" y="574.8872">can be performed here</text><text fill="#000000" font-family="sans-serif" font-size="13" font-style="italic" lengthAdjust="spacing" textLength="88.3975" x="290.0293" y="574.8872">(if necessary)</text><text fill="#000000" font-family="sans-serif" font-size="13" lengthAdjust="spacing" textLength="186.3735" x="135.9336" y="590.02">See SCA diagram for details.</text><path d="M133.1074,608.0859 L133.1074,648.0859 L390.1074,648.0859 L390.1074,618.0859 L380.1074,608.0859 L133.1074,608.0859" fill="#FEFFDD" style="stroke:#181818;stroke-width:0.5;"/><path d="M380.1074,608.0859 L380.1074,618.0859 L390.1074,618.0859 L380.1074,608.0859" fill="#FEFFDD" style="stroke:#181818;stroke-width:0.5;"/><text fill="#000000" font-family="sans-serif" font-size="13" lengthAdjust="spacing" textLength="236.1455" x="139.1074" y="625.1528">Authorizing means reserving money</text><text fill="#000000" font-family="sans-serif" font-size="13" lengthAdjust="spacing" textLength="218.8481" x="139.1074" y="640.2856">on the cardholders bank account.</text><polygon fill="#181818" points="439.3271,670.4844,429.3271,674.4844,439.3271,678.4844,435.3271,674.4844" style="stroke:#181818;stroke-width:1;"/><line style="stroke:#181818;stroke-width:1;stroke-dasharray:2,2;" x1="433.3271" x2="630.3921" y1="674.4844" y2="674.4844"/><text fill="#000000" font-family="sans-serif" font-size="13" lengthAdjust="spacing" textLength="120.4849" x="445.3271" y="669.4185">Authorization data</text><polygon fill="#181818" points="56.5195,699.6172,46.5195,703.6172,56.5195,707.6172,52.5195,703.6172" style="stroke:#181818;stroke-width:1;"/><line style="stroke:#181818;stroke-width:1;stroke-dasharray:2,2;" x1="50.5195" x2="417.3271" y1="703.6172" y2="703.6172"/><text fill="#000000" font-family="sans-serif" font-size="13" lengthAdjust="spacing" textLength="52.3301" x="62.5195" y="698.5513">Success</text><polygon fill="#181818" points="272.6802,728.75,262.6802,732.75,272.6802,736.75,268.6802,732.75" style="stroke:#181818;stroke-width:1;"/><line style="stroke:#181818;stroke-width:1;" x1="266.6802" x2="422.3271" y1="732.75" y2="732.75"/><text fill="#000000" font-family="sans-serif" font-size="13" lengthAdjust="spacing" textLength="27.9424" x="278.6802" y="727.6841">Ping</text><line style="stroke:#181818;stroke-width:1;" x1="45.5195" x2="87.5195" y1="761.8828" y2="761.8828"/><line style="stroke:#181818;stroke-width:1;" x1="87.5195" x2="87.5195" y1="761.8828" y2="774.8828"/><line style="stroke:#181818;stroke-width:1;" x1="40.5195" x2="87.5195" y1="774.8828" y2="774.8828"/><polygon fill="#181818" points="50.5195,770.8828,40.5195,774.8828,50.5195,778.8828,46.5195,774.8828" style="stroke:#181818;stroke-width:1;"/><text fill="#000000" font-family="sans-serif" font-size="13" font-style="italic" lengthAdjust="spacing" textLength="71.665" x="52.5195" y="756.8169">Redirect to</text><text fill="#000000" font-family="sans-serif" font-size="13" lengthAdjust="spacing" textLength="4.1323" x="124.1846" y="756.8169">&#160;</text><text fill="#000000" font-family="monospace" font-size="13" lengthAdjust="spacing" textLength="78.2666" x="128.3169" y="756.8169">successurl</text><path d="M245.6802,764.3828 L318.1655,764.3828 L318.1655,771.5156 L308.1655,781.5156 L245.6802,781.5156 L245.6802,764.3828" fill="#EEEEEE" style="stroke:#000000;stroke-width:1.5;"/><rect fill="none" height="85.3984" style="stroke:#000000;stroke-width:1.5;" width="198.647" x="245.6802" y="764.3828"/><text fill="#000000" font-family="sans-serif" font-size="13" font-weight="bold" lengthAdjust="spacing" textLength="27.4854" x="260.6802" y="777.4497">Seq</text><polygon fill="#181818" points="406.3271,808.6484,416.3271,812.6484,406.3271,816.6484,410.3271,812.6484" style="stroke:#181818;stroke-width:1;"/><line style="stroke:#181818;stroke-width:1;" x1="261.6802" x2="412.3271" y1="812.6484" y2="812.6484"/><text fill="#000000" font-family="sans-serif" font-size="13" lengthAdjust="spacing" textLength="112.9185" x="268.6802" y="807.5825">Get new changes</text><polygon fill="#181818" points="272.6802,837.7813,262.6802,841.7813,272.6802,845.7813,268.6802,841.7813" style="stroke:#181818;stroke-width:1;"/><line style="stroke:#181818;stroke-width:1;stroke-dasharray:2,2;" x1="266.6802" x2="417.3271" y1="841.7813" y2="841.7813"/><text fill="#000000" font-family="sans-serif" font-size="13" lengthAdjust="spacing" textLength="109.6938" x="278.6802" y="836.7153">Transaction data</text><polygon fill="#181818" points="406.3271,880.9141,416.3271,884.9141,406.3271,888.9141,410.3271,884.9141" style="stroke:#181818;stroke-width:1;"/><line style="stroke:#181818;stroke-width:1;" x1="261.6802" x2="412.3271" y1="884.9141" y2="884.9141"/><text fill="#000000" font-family="sans-serif" font-size="13" lengthAdjust="spacing" textLength="129.543" x="268.6802" y="879.8481">Capture transaction</text><polygon fill="#181818" points="619.3921,910.0469,629.3921,914.0469,619.3921,918.0469,623.3921,914.0469" style="stroke:#181818;stroke-width:1;"/><line style="stroke:#181818;stroke-width:1;" x1="428.3271" x2="625.3921" y1="914.0469" y2="914.0469"/><text fill="#000000" font-family="sans-serif" font-size="13" lengthAdjust="spacing" textLength="120.4849" x="435.3271" y="908.981">Authorization data</text><path d="M130.4541,927.0469 L130.4541,982.0469 L392.4541,982.0469 L392.4541,937.0469 L382.4541,927.0469 L130.4541,927.0469" fill="#FEFFDD" style="stroke:#181818;stroke-width:0.5;"/><path d="M382.4541,927.0469 L382.4541,937.0469 L392.4541,937.0469 L382.4541,927.0469" fill="#FEFFDD" style="stroke:#181818;stroke-width:0.5;"/><text fill="#000000" font-family="sans-serif" font-size="13" lengthAdjust="spacing" textLength="241.4521" x="136.4541" y="944.1138">Capturing means transferring money</text><text fill="#000000" font-family="sans-serif" font-size="13" lengthAdjust="spacing" textLength="232.6353" x="136.4541" y="959.2466">from the cardholder's bank account</text><text fill="#000000" font-family="sans-serif" font-size="13" lengthAdjust="spacing" textLength="211.8657" x="136.4541" y="974.3794">to the merchant's bank account.</text><polygon fill="#181818" points="439.3271,1004.5781,429.3271,1008.5781,439.3271,1012.5781,435.3271,1008.5781" style="stroke:#181818;stroke-width:1;"/><line style="stroke:#181818;stroke-width:1;stroke-dasharray:2,2;" x1="433.3271" x2="630.3921" y1="1008.5781" y2="1008.5781"/><text fill="#000000" font-family="sans-serif" font-size="13" lengthAdjust="spacing" textLength="85.3887" x="445.3271" y="1003.5122">Capture data</text><polygon fill="#181818" points="272.6802,1033.7109,262.6802,1037.7109,272.6802,1041.7109,268.6802,1037.7109" style="stroke:#181818;stroke-width:1;"/><line style="stroke:#181818;stroke-width:1;stroke-dasharray:2,2;" x1="266.6802" x2="417.3271" y1="1037.7109" y2="1037.7109"/><text fill="#000000" font-family="sans-serif" font-size="13" lengthAdjust="spacing" textLength="52.3301" x="278.6802" y="1032.645">Success</text><polygon fill="#181818" points="272.6802,1062.8438,262.6802,1066.8438,272.6802,1070.8438,268.6802,1066.8438" style="stroke:#181818;stroke-width:1;"/><line style="stroke:#181818;stroke-width:1;" x1="266.6802" x2="422.3271" y1="1066.8438" y2="1066.8438"/><text fill="#000000" font-family="sans-serif" font-size="13" lengthAdjust="spacing" textLength="27.9424" x="278.6802" y="1061.7778">Ping</text><!--SRC=[ZLJPRjim47pNLsnTe0Tow3qe0ZXfcvSK2EBq0oXg9HCMZv1K3ENhEnJbM4gDeeOXI3lBvSxCaX-S5wqM5Dc-KlGz5qxugAHomaIwyNOVs9C8L2s0N-pbDhq0qGja8uLnOaX0S0jajNQkOteGmogXOeckvNElVDvBoEUYeejhqdHsHbTqPobQGbND9XOw8S5bwDQpY7p0g5DcXuHl5nSf0yyh-lruZs8fedEWB1-vnbOopghINfdQxiko43AgbrIpee_tgjt6cmwgL2SsVUD3WKDGrXJ68kpJ8h8D9FjfFJ3PUnK7mg9WJQ2uLG4Vpps7IBh7euBgw4Sv5L6tfWhoKTN7Q0t9JidT9JrjqL1ses3JM2zvglJ27Wr4hsJiXdCIfivn_FTR4GkLidLAPWfMSmhIhklhTY1b8lj6IBv4qPfI-yMdKRbh-BCWUw08C6af9dKtEKorY6AIEPo6PYNlE4c_uxy5MvEphdV8T2nyeCPRFNO-SISL0tVDEJa0BYhJZYXC11Pj0J5KCnnYex4rHw4w3313XyJ3rBDbEGKTpXIe5Wn_6Ea7bsn9qWRL6hpcxXT3yO-yB2YUL_ITnwm5W76Vf1P-Mf956zMnu8JHpREu4Ps62PleBJZSOdZWgATr3pe6Pqd4v16E8EYIWxUm7cri6SpByejgo30c9mW_VCMiRvXfSxkcMedM2qr8F-WrqsFMHf5sibwz9War2vCc6RwyZD_My530yQIj19UjxMg6YvKmEx2KjZTnLlSmIg0_AdseFP8uEL6zJCsF1ppB-O1zimtL-vDTbhHQXRoYzzrgLTHyFDi5vhpr5gEsuUU2y5jSAsb23UyfNN8jXobXtikJ1_bKxz0gQBsxceIBFNIFnyptXfzWF1SxLpXAFLPgsFkZscy7vAZtvwNW1IwvbA2dA_lpV_jn833sfKywaVdeoOa_]--></g></svg>