<svg xmlns="http://www.w3.org/2000/svg" xmlns:xlink="http://www.w3.org/1999/xlink" contentStyleType="text/css" data-diagram-type="SEQUENCE" height="939px" preserveAspectRatio="none" style="width:698px;height:939px;background:#FFFFFF;" version="1.1" viewBox="0 0 698 939" width="698px" zoomAndPan="magnify"><defs><filter height="1" id="b1g16qkfae0vm00" width="1" x="0" y="0"><feFlood flood-color="#FFF0F5" result="flood"/><feComposite in="SourceGraphic" in2="flood" operator="over"/></filter></defs><g><rect fill="#E0FFFF" height="67.2656" style="stroke:#E0FFFF;stroke-width:1;" width="565.0063" x="19.5195" y="435.0234"/><rect fill="#FFF0F5" height="289.1328" style="stroke:#FFF0F5;stroke-width:1;" width="565.0063" x="19.5195" y="502.2891"/><g><title>Browser</title><rect fill="#000000" fill-opacity="0.00000" height="866.5234" width="8" x="37.0195" y="36.2969"/><line style="stroke:#181818;stroke-width:0.5;stroke-dasharray:5,5;" x1="40.5195" x2="40.5195" y1="36.2969" y2="902.8203"/></g><g><title/><rect fill="#ADD8E6" height="858.5234" style="stroke:#181818;stroke-width:1;" width="10" x="35.5195" y="44.2969"/></g><g><title/><rect fill="#FFC0CB" height="123.6641" style="stroke:#181818;stroke-width:1;" width="10" x="40.5195" y="572.3594"/></g><g><title>Scanpay</title><rect fill="#000000" fill-opacity="0.00000" height="866.5234" width="8" x="336.1782" y="36.2969"/><line style="stroke:#181818;stroke-width:0.5;stroke-dasharray:5,5;" x1="339.6782" x2="339.6782" y1="36.2969" y2="902.8203"/></g><g><title/><rect fill="#FFFFFF" height="256.1953" style="stroke:#181818;stroke-width:1;" width="10" x="334.6782" y="65.4297"/></g><g><title/><rect fill="#E0FFFF" height="490.9297" style="stroke:#181818;stroke-width:1;" width="10" x="334.6782" y="393.8906"/></g><g><title/><rect fill="#FFF0F5" height="178.4688" style="stroke:#181818;stroke-width:1;" width="10" x="339.6782" y="393.8906"/></g><g><title/><rect fill="#FFF0F5" height="159.6641" style="stroke:#181818;stroke-width:1;" width="10" x="339.6782" y="725.1563"/></g><g><title>3-D Secure</title><rect fill="#000000" fill-opacity="0.00000" height="866.5234" width="8" x="560.0259" y="36.2969"/><line style="stroke:#181818;stroke-width:0.5;stroke-dasharray:5,5;" x1="563.5259" x2="563.5259" y1="36.2969" y2="902.8203"/></g><g><title/><rect fill="#FFFFFF" height="29.1328" style="stroke:#181818;stroke-width:1;" width="10" x="558.5259" y="263.3594"/></g><g><title/><rect fill="#FFFFFF" height="14" style="stroke:#181818;stroke-width:1;" width="10" x="558.5259" y="350.7578"/></g><g><title/><rect fill="#FFF0F5" height="120.2031" style="stroke:#181818;stroke-width:1;" width="10" x="558.5259" y="423.0234"/></g><g><title/><rect fill="#FFFFFF" height="94.5313" style="stroke:#181818;stroke-width:1;" width="10" x="558.5259" y="601.4922"/></g><g><title/><rect fill="#FFFFFF" height="29.1328" style="stroke:#181818;stroke-width:1;" width="10" x="558.5259" y="754.2891"/></g><g><title/><rect fill="#E0FFFF" height="60.2656" style="stroke:#181818;stroke-width:1;" width="10" x="563.5259" y="423.0234"/></g><g><title>Acquirer</title><rect fill="#000000" fill-opacity="0.00000" height="866.5234" width="8" x="652.3647" y="36.2969"/><line style="stroke:#181818;stroke-width:0.5;stroke-dasharray:5,5;" x1="655.8647" x2="655.8647" y1="36.2969" y2="902.8203"/></g><g><title/><rect fill="#FFFFFF" height="29.1328" style="stroke:#181818;stroke-width:1;" width="10" x="650.8647" y="125.6953"/></g><g><title/><rect fill="#FFFFFF" height="29.1328" style="stroke:#181818;stroke-width:1;" width="10" x="650.8647" y="826.5547"/></g><rect fill="#E2E2F0" height="30.2969" rx="2.5" ry="2.5" style="stroke:#181818;stroke-width:0.5;" width="71.0391" x="5" y="5"/><text fill="#000000" font-family="sans-serif" font-size="14" lengthAdjust="spacing" textLength="57.0391" x="12" y="24.9951">Browser</text><rect fill="#E2E2F0" height="30.2969" rx="2.5" ry="2.5" style="stroke:#181818;stroke-width:0.5;" width="73.7871" x="302.7847" y="5"/><text fill="#000000" font-family="sans-serif" font-size="14" lengthAdjust="spacing" textLength="59.7871" x="309.7847" y="24.9951">Scanpay</text><rect fill="#E2E2F0" height="30.2969" rx="2.5" ry="2.5" style="stroke:#181818;stroke-width:0.5;" width="91.6289" x="517.7114" y="5"/><text fill="#000000" font-family="sans-serif" font-size="14" lengthAdjust="spacing" textLength="77.6289" x="524.7114" y="24.9951">3-D Secure</text><rect fill="#E2E2F0" height="30.2969" rx="2.5" ry="2.5" style="stroke:#181818;stroke-width:0.5;" width="73.0488" x="619.3403" y="5"/><text fill="#000000" font-family="sans-serif" font-size="14" lengthAdjust="spacing" textLength="59.0488" x="626.3403" y="24.9951">Acquirer</text><rect fill="#E2E2F0" height="30.2969" rx="2.5" ry="2.5" style="stroke:#181818;stroke-width:0.5;" width="71.0391" x="5" y="902.8203"/><text fill="#000000" font-family="sans-serif" font-size="14" lengthAdjust="spacing" textLength="57.0391" x="12" y="922.8154">Browser</text><rect fill="#E2E2F0" height="30.2969" rx="2.5" ry="2.5" style="stroke:#181818;stroke-width:0.5;" width="73.7871" x="302.7847" y="902.8203"/><text fill="#000000" font-family="sans-serif" font-size="14" lengthAdjust="spacing" textLength="59.7871" x="309.7847" y="922.8154">Scanpay</text><rect fill="#E2E2F0" height="30.2969" rx="2.5" ry="2.5" style="stroke:#181818;stroke-width:0.5;" width="91.6289" x="517.7114" y="902.8203"/><text fill="#000000" font-family="sans-serif" font-size="14" lengthAdjust="spacing" textLength="77.6289" x="524.7114" y="922.8154">3-D Secure</text><rect fill="#E2E2F0" height="30.2969" rx="2.5" ry="2.5" style="stroke:#181818;stroke-width:0.5;" width="73.0488" x="619.3403" y="902.8203"/><text fill="#000000" font-family="sans-serif" font-size="14" lengthAdjust="spacing" textLength="59.0488" x="626.3403" y="922.8154">Acquirer</text><polygon fill="#181818" points="322.6782,61.4297,332.6782,65.4297,322.6782,69.4297,326.6782,65.4297" style="stroke:#181818;stroke-width:1;"/><line style="stroke:#181818;stroke-width:1;" x1="45.5195" x2="328.6782" y1="65.4297" y2="65.4297"/><text fill="#000000" font-family="sans-serif" font-size="13" lengthAdjust="spacing" textLength="151.6138" x="52.5195" y="60.3638">Credit card information</text><path d="M323.6782,77.4297 L562.707,77.4297 L562.707,84.5625 L552.707,94.5625 L323.6782,94.5625 L323.6782,77.4297" fill="#EEEEEE" style="stroke:#000000;stroke-width:1.5;"/><rect fill="none" height="85.3984" style="stroke:#000000;stroke-width:1.5;" width="353.1865" x="323.6782" y="77.4297"/><text fill="#000000" font-family="sans-serif" font-size="13" font-weight="bold" lengthAdjust="spacing" textLength="194.0288" x="338.6782" y="90.4966">Acquirers can enforce SCA</text><polygon fill="#181818" points="638.8647,121.6953,648.8647,125.6953,638.8647,129.6953,642.8647,125.6953" style="stroke:#181818;stroke-width:1;"/><line style="stroke:#181818;stroke-width:1;" x1="344.6782" x2="644.8647" y1="125.6953" y2="125.6953"/><text fill="#000000" font-family="sans-serif" font-size="13" lengthAdjust="spacing" textLength="151.6138" x="351.6782" y="120.6294">Credit card information</text><polygon fill="#181818" points="355.6782,150.8281,345.6782,154.8281,355.6782,158.8281,351.6782,154.8281" style="stroke:#181818;stroke-width:1;"/><line style="stroke:#181818;stroke-width:1;stroke-dasharray:2,2;" x1="349.6782" x2="649.8647" y1="154.8281" y2="154.8281"/><text fill="#000000" font-family="sans-serif" font-size="13" lengthAdjust="spacing" textLength="85.395" x="361.6782" y="149.7622">SCA required</text><path d="M349.6782,181.8281 L349.6782,236.8281 L664.6782,236.8281 L664.6782,191.8281 L654.6782,181.8281 L349.6782,181.8281" fill="#FEFFDD" style="stroke:#181818;stroke-width:0.5;"/><path d="M654.6782,181.8281 L654.6782,191.8281 L664.6782,191.8281 L654.6782,181.8281" fill="#FEFFDD" style="stroke:#181818;stroke-width:0.5;"/><text fill="#000000" font-family="sans-serif" font-size="13" lengthAdjust="spacing" textLength="294.4614" x="355.6782" y="198.895">Scanpay has systems to enforce SCA without</text><text fill="#000000" font-family="sans-serif" font-size="13" lengthAdjust="spacing" textLength="294.2773" x="355.6782" y="214.0278">an acquirer's involvement, eg. for dissuading</text><text fill="#000000" font-family="sans-serif" font-size="13" lengthAdjust="spacing" textLength="205.8418" x="355.6782" y="229.1606">and combatting fraudulent use.</text><polygon fill="#181818" points="546.5259,259.3594,556.5259,263.3594,546.5259,267.3594,550.5259,263.3594" style="stroke:#181818;stroke-width:1;"/><line style="stroke:#181818;stroke-width:1;" x1="344.6782" x2="552.5259" y1="263.3594" y2="263.3594"/><text fill="#000000" font-family="sans-serif" font-size="13" lengthAdjust="spacing" textLength="136.2969" x="351.6782" y="258.2935">Credit card number (</text><text fill="#000000" font-family="monospace" font-size="13" font-weight="bold" lengthAdjust="spacing" textLength="31.3066" x="487.9751" y="258.2935">Prep</text><text fill="#000000" font-family="sans-serif" font-size="13" lengthAdjust="spacing" textLength="5.0718" x="519.2817" y="258.2935">)</text><polygon fill="#181818" points="355.6782,288.4922,345.6782,292.4922,355.6782,296.4922,351.6782,292.4922" style="stroke:#181818;stroke-width:1;"/><line style="stroke:#181818;stroke-width:1;stroke-dasharray:2,2;" x1="349.6782" x2="557.5259" y1="292.4922" y2="292.4922"/><text fill="#000000" font-family="sans-serif" font-size="13" lengthAdjust="spacing" textLength="25.7905" x="361.6782" y="287.4263">URL</text><polygon fill="#181818" points="56.5195,317.625,46.5195,321.625,56.5195,325.625,52.5195,321.625" style="stroke:#181818;stroke-width:1;"/><line style="stroke:#181818;stroke-width:1;stroke-dasharray:2,2;" x1="50.5195" x2="333.6782" y1="321.625" y2="321.625"/><text fill="#000000" font-family="sans-serif" font-size="13" font-style="italic" lengthAdjust="spacing" textLength="229.8931" x="62.5195" y="316.5591">Insert iframe to fingerprint browser</text><polygon fill="#181818" points="546.5259,346.7578,556.5259,350.7578,546.5259,354.7578,550.5259,350.7578" style="stroke:#181818;stroke-width:1;"/><line style="stroke:#181818;stroke-width:1;" x1="45.5195" x2="552.5259" y1="350.7578" y2="350.7578"/><text fill="#000000" font-family="sans-serif" font-size="13" lengthAdjust="spacing" textLength="104.8823" x="52.5195" y="345.6919">Fingerprint data</text><polygon fill="#181818" points="56.5195,360.7578,46.5195,364.7578,56.5195,368.7578,52.5195,364.7578" style="stroke:#181818;stroke-width:1;"/><line style="stroke:#181818;stroke-width:1;stroke-dasharray:2,2;" x1="50.5195" x2="557.5259" y1="364.7578" y2="364.7578"/><polygon fill="#181818" points="327.6782,389.8906,337.6782,393.8906,327.6782,397.8906,331.6782,393.8906" style="stroke:#181818;stroke-width:1;"/><line style="stroke:#181818;stroke-width:1;" x1="45.5195" x2="333.6782" y1="393.8906" y2="393.8906"/><text fill="#000000" font-family="sans-serif" font-size="13" lengthAdjust="spacing" textLength="128.1465" x="52.5195" y="388.8247">Fingerprinting done</text><polygon fill="#181818" points="551.5259,419.0234,561.5259,423.0234,551.5259,427.0234,555.5259,423.0234" style="stroke:#181818;stroke-width:1;"/><line style="stroke:#181818;stroke-width:1;" x1="349.6782" x2="557.5259" y1="423.0234" y2="423.0234"/><text fill="#000000" font-family="sans-serif" font-size="13" lengthAdjust="spacing" textLength="158.4692" x="356.6782" y="417.9575">Authentication request (</text><text fill="#000000" font-family="monospace" font-size="13" font-weight="bold" lengthAdjust="spacing" textLength="31.3066" x="515.1475" y="417.9575">AReq</text><text fill="#000000" font-family="sans-serif" font-size="13" lengthAdjust="spacing" textLength="5.0718" x="546.4541" y="417.9575">)</text><path d="M19.5195,435.0234 L83.9624,435.0234 L83.9624,442.1563 L73.9624,452.1563 L19.5195,452.1563 L19.5195,435.0234" fill="#EEEEEE" style="stroke:#000000;stroke-width:1.5;"/><rect fill="none" height="356.3984" style="stroke:#000000;stroke-width:1.5;" width="565.0063" x="19.5195" y="435.0234"/><text fill="#000000" font-family="sans-serif" font-size="13" font-weight="bold" lengthAdjust="spacing" textLength="19.4429" x="34.5195" y="448.0903">alt</text><text fill="#000000" font-family="sans-serif" font-size="11" font-weight="bold" lengthAdjust="spacing" textLength="112.1323" x="98.9624" y="447.2339">[Frictionless flow]</text><line style="stroke:#000000;stroke-width:1;stroke-dasharray:2,2;" x1="19.5195" x2="584.5259" y1="502.2891" y2="502.2891"/><text fill="#000000" font-family="sans-serif" font-size="11" font-weight="bold" lengthAdjust="spacing" textLength="5.0273" x="24.5195" y="514.4995">[</text><text fill="#000000" filter="url(#b1g16qkfae0vm00)" font-family="sans-serif" font-size="11" font-weight="bold" lengthAdjust="spacing" textLength="91.5986" x="29.5469" y="514.4995">Challenge flow</text><text fill="#000000" font-family="sans-serif" font-size="11" font-weight="bold" lengthAdjust="spacing" textLength="5.0273" x="121.1455" y="514.4995">]</text><polygon fill="#181818" points="360.6782,479.2891,350.6782,483.2891,360.6782,487.2891,356.6782,483.2891" style="stroke:#181818;stroke-width:1;"/><line style="stroke:#181818;stroke-width:1;stroke-dasharray:2,2;" x1="354.6782" x2="562.5259" y1="483.2891" y2="483.2891"/><text fill="#000000" font-family="sans-serif" font-size="13" lengthAdjust="spacing" textLength="138.0488" x="366.6782" y="478.2231">Authentication data (</text><text fill="#000000" font-family="monospace" font-size="13" font-weight="bold" lengthAdjust="spacing" textLength="31.3066" x="504.7271" y="478.2231">ARes</text><text fill="#000000" font-family="sans-serif" font-size="13" lengthAdjust="spacing" textLength="5.0718" x="536.0337" y="478.2231">)</text><polygon fill="#181818" points="360.6782,539.2266,350.6782,543.2266,360.6782,547.2266,356.6782,543.2266" style="stroke:#181818;stroke-width:1;"/><line style="stroke:#181818;stroke-width:1;stroke-dasharray:2,2;" x1="354.6782" x2="557.5259" y1="543.2266" y2="543.2266"/><text fill="#000000" font-family="sans-serif" font-size="13" lengthAdjust="spacing" textLength="133.3706" x="366.6782" y="538.1606">Challenge required (</text><text fill="#000000" font-family="monospace" font-size="13" font-weight="bold" lengthAdjust="spacing" textLength="31.3066" x="500.0488" y="538.1606">ARes</text><text fill="#000000" font-family="sans-serif" font-size="13" lengthAdjust="spacing" textLength="5.0718" x="531.3555" y="538.1606">)</text><polygon fill="#181818" points="61.5195,568.3594,51.5195,572.3594,61.5195,576.3594,57.5195,572.3594" style="stroke:#181818;stroke-width:1;"/><line style="stroke:#181818;stroke-width:1;stroke-dasharray:2,2;" x1="55.5195" x2="338.6782" y1="572.3594" y2="572.3594"/><text fill="#000000" font-family="sans-serif" font-size="13" font-style="italic" lengthAdjust="spacing" textLength="214.5762" x="67.5195" y="567.2935">Redirect to card issuer challenge</text><text fill="#000000" font-family="sans-serif" font-size="13" lengthAdjust="spacing" textLength="5.0718" x="286.228" y="567.2935">(</text><text fill="#000000" font-family="monospace" font-size="13" font-weight="bold" lengthAdjust="spacing" textLength="31.3066" x="291.2998" y="567.2935">CReq</text><text fill="#000000" font-family="sans-serif" font-size="13" lengthAdjust="spacing" textLength="5.0718" x="322.6064" y="567.2935">)</text><polygon fill="#181818" points="546.5259,597.4922,556.5259,601.4922,546.5259,605.4922,550.5259,601.4922" style="stroke:#181818;stroke-width:1;"/><line style="stroke:#181818;stroke-width:1;" x1="50.5195" x2="552.5259" y1="601.4922" y2="601.4922"/><text fill="#000000" font-family="sans-serif" font-size="13" lengthAdjust="spacing" textLength="239.3574" x="57.5195" y="596.4263">Issuer-specific challenge information</text><path d="M148.6636,614.4922 L148.6636,669.4922 L530.6636,669.4922 L530.6636,624.4922 L520.6636,614.4922 L148.6636,614.4922" fill="#FEFFDD" style="stroke:#181818;stroke-width:0.5;"/><path d="M520.6636,614.4922 L520.6636,624.4922 L530.6636,624.4922 L520.6636,614.4922" fill="#FEFFDD" style="stroke:#181818;stroke-width:0.5;"/><text fill="#000000" font-family="sans-serif" font-size="13" lengthAdjust="spacing" textLength="354.1548" x="154.6636" y="631.5591">The challenge performed is specific to the card issuer.</text><text fill="#000000" font-family="sans-serif" font-size="13" lengthAdjust="spacing" textLength="361.0293" x="154.6636" y="646.6919">For example, for Nets the challenge is a choice of MitID</text><text fill="#000000" font-family="sans-serif" font-size="13" lengthAdjust="spacing" textLength="341.4912" x="154.6636" y="661.8247">verification or password + SMS code authentication.</text><polygon fill="#181818" points="61.5195,692.0234,51.5195,696.0234,61.5195,700.0234,57.5195,696.0234" style="stroke:#181818;stroke-width:1;"/><line style="stroke:#181818;stroke-width:1;stroke-dasharray:2,2;" x1="55.5195" x2="557.5259" y1="696.0234" y2="696.0234"/><text fill="#000000" font-family="sans-serif" font-size="13" font-style="italic" lengthAdjust="spacing" textLength="222.187" x="67.5195" y="690.9575">Redirect back to payment window</text><polygon fill="#181818" points="327.6782,721.1563,337.6782,725.1563,327.6782,729.1563,331.6782,725.1563" style="stroke:#181818;stroke-width:1;"/><line style="stroke:#181818;stroke-width:1;" x1="45.5195" x2="333.6782" y1="725.1563" y2="725.1563"/><text fill="#000000" font-family="sans-serif" font-size="13" lengthAdjust="spacing" textLength="115.394" x="52.5195" y="720.0903">Challenge result (</text><text fill="#000000" font-family="monospace" font-size="13" font-weight="bold" lengthAdjust="spacing" textLength="31.3066" x="167.9136" y="720.0903">CRes</text><text fill="#000000" font-family="sans-serif" font-size="13" lengthAdjust="spacing" textLength="5.0718" x="199.2202" y="720.0903">)</text><polygon fill="#181818" points="546.5259,750.2891,556.5259,754.2891,546.5259,758.2891,550.5259,754.2891" style="stroke:#181818;stroke-width:1;"/><line style="stroke:#181818;stroke-width:1;" x1="349.6782" x2="552.5259" y1="754.2891" y2="754.2891"/><text fill="#000000" font-family="sans-serif" font-size="13" lengthAdjust="spacing" textLength="155.2192" x="356.6782" y="749.2231">Get authentication data</text><polygon fill="#181818" points="360.6782,779.4219,350.6782,783.4219,360.6782,787.4219,356.6782,783.4219" style="stroke:#181818;stroke-width:1;"/><line style="stroke:#181818;stroke-width:1;stroke-dasharray:2,2;" x1="354.6782" x2="557.5259" y1="783.4219" y2="783.4219"/><text fill="#000000" font-family="sans-serif" font-size="13" lengthAdjust="spacing" textLength="138.0488" x="366.6782" y="778.356">Authentication data (</text><text fill="#000000" font-family="monospace" font-size="13" font-weight="bold" lengthAdjust="spacing" textLength="31.3066" x="504.7271" y="778.356">RReq</text><text fill="#000000" font-family="sans-serif" font-size="13" lengthAdjust="spacing" textLength="5.0718" x="536.0337" y="778.356">)</text><polygon fill="#181818" points="638.8647,822.5547,648.8647,826.5547,638.8647,830.5547,642.8647,826.5547" style="stroke:#181818;stroke-width:1;"/><line style="stroke:#181818;stroke-width:1;" x1="349.6782" x2="644.8647" y1="826.5547" y2="826.5547"/><text fill="#000000" font-family="sans-serif" font-size="13" lengthAdjust="spacing" textLength="177.7153" x="356.6782" y="821.4888">Card + authentication data</text><polygon fill="#181818" points="360.6782,851.6875,350.6782,855.6875,360.6782,859.6875,356.6782,855.6875" style="stroke:#181818;stroke-width:1;"/><line style="stroke:#181818;stroke-width:1;stroke-dasharray:2,2;" x1="354.6782" x2="649.8647" y1="855.6875" y2="855.6875"/><text fill="#000000" font-family="sans-serif" font-size="13" lengthAdjust="spacing" textLength="120.4849" x="366.6782" y="850.6216">Authorization data</text><polygon fill="#181818" points="56.5195,880.8203,46.5195,884.8203,56.5195,888.8203,52.5195,884.8203" style="stroke:#181818;stroke-width:1;"/><line style="stroke:#181818;stroke-width:1;stroke-dasharray:2,2;" x1="50.5195" x2="338.6782" y1="884.8203" y2="884.8203"/><text fill="#000000" font-family="sans-serif" font-size="13" lengthAdjust="spacing" textLength="52.3301" x="62.5195" y="879.7544">Success</text><!--SRC=[bLJBRjim4BphAxRkeQqJHuVUZ220uo15WAGexFO3Q6fj4P58XLpPJRw-kvJrR52WkWWaTsTcdnyghmwb0aBt1kHhJ2hboMXJAKjmwzqfe0SLO3Tws6fbA_Kg3w4QlSo-BkvWYxhsE8lFMetUL_gbDhx1LFebKPhCKH723Zu-caDEjmMBsC7YXf7XuWAMiFQO6GAjV0R6xfql5HbdauDtTTK11ZQmWFAk4RRhLSB-ZC8a_uPXi-l58jhnRocku362PWdQBB6EvNdH1culyRRHvnBVQo0i0v0RSiF9KEvgIbYIEWly59Zsw8eZbcZf4l1m1Um0cGcXLfcn1xREGBjofuZu27klwgmks1hgW5SY1aJCEJ9ExT-HsRhSSNO_p-UpsG-FrMmsdtzfOnIF6EElpIFdE5vLpKsQFbWkDO5XrX8bdZrhG5zvm_oxfXFIz5oQblf-O9CfKYrg9EhAEBAJo39diIyzMpIrNxygExbMHuuQFNT5o0TnBs5LKywPCJfMCLOC0pM1hpRuqWJUWx7J16torWieQ724Us-qK1GO0kmBTqg0lsb69t8a5vsMq6Z18k140rplb7vUZkvkrhagkEW7Z6pNgPZSl4lQMxODE-KKhscXDzmj7ZL9ZPjfu0Radj4jMfesCEikZG8pdDGVnZwViOVTy1215g52RVP6zuYZWHE_E5FkoAmyJt3-VkOuSAdGYm-AFkWWMJE9MQ_xglE_vsd2twgi2hoCe_KTAJJclH1UEtnqXWULf_d9qCDT1y1wXAGf8VjNAeIJOwOBs3vjUJGp13KgT4FU3UOWtMsD1lcMGae0l3ja1V2Ii9axyKo9MuPzWWUfZJjmqZJZmeUweAvUWx9FbiGtf8dsPc3_gvatNKV8OfmkM1KpzHx9TCSAWVFcRM3ITIblu5fh7hPaa1Bkaj7f3m00]--></g></svg>