<svg xmlns="http://www.w3.org/2000/svg" viewBox="0 0 137 32">
  <path fill="url(#a)" d="M17.7 15.4a10 10 0 0 1-2.3 6.7A8.3 8.3 0 0 1 8.9 25C6.3 25 4 24 2.4 22A10 9.9 0 0 1 0 15.4c0-2.8.8-5 2.4-6.9a8.3 8.3 0 0 1 6.5-2.8c2.7 0 4.8 1 6.5 2.8 1.6 1.9 2.3 4.1 2.3 6.9zm-5.2 0c0-1.3-.3-2.3-.9-3.1A3.2 3.2 0 0 0 9 10.8c-1.2 0-2 .5-2.7 1.5a5.2 5.2 0 0 0-1 3 5 5 0 0 0 1 3.1 3.2 3.2 0 0 0 2.7 1.4c1.2 0 2.1-.4 2.7-1.4a5.4 5.4 0 0 0 .9-3zm24.4 0a10.4 10.4 0 0 1-2.2 6.5c-1.5 2-3.5 3-6 3a6.6 6.6 0 0 1-4.3-1.4 38 38 0 0 0 .2 3.8c0 3.1-1 4.7-2.8 4.7a2.4 2.4 0 0 1-2-.8 2.8 2.8 0 0 1-.7-2V8.8c0-.8.2-1.4.7-2 .5-.5 1.2-.8 2-.8 1 0 2 .6 2.4 1.7a5.5 5.5 0 0 1 4.5-2c2.5 0 4.5 1 6 3a10.5 10.5 0 0 1 2.2 6.6zm-5.3 0c0-1.3-.3-2.3-.8-3.1a3.2 3.2 0 0 0-2.8-1.5c-1.2 0-2 .5-2.7 1.5a5.2 5.2 0 0 0-1 3c.1 1.2.4 2.3 1 3.1a3.2 3.2 0 0 0 2.7 1.4c1.2 0 2.1-.4 2.8-1.4a5.4 5.4 0 0 0 .8-3zm24.5-.6c0 .8-.2 1.4-.6 1.8-.4.3-1 .5-1.9.5H44c0 1 .5 1.8 1.5 2.3.7.5 1.6.7 2.8.7.8 0 1.8-.3 3-.9 1.3-.5 2-.8 2.4-.8.6 0 1.1.2 1.5.6a2.3 2.3 0 0 1 .7 1.7c0 1.4-1 2.5-3.3 3.3-1.7.6-3.3 1-5 1-2.8 0-5-1-6.7-2.8a10 10 0 0 1-2.5-6.8A9.6 9.5 0 0 1 41 8.5a8.6 8.6 0 0 1 6.6-2.8 8 8 0 0 1 6 2.7 9.1 9.1 0 0 1 2.5 6.4zM51 13.4a3 3 0 0 0-1.2-2.2 3.4 3.4 0 0 0-2.3-1 3.4 3.4 0 0 0-2.3 1c-.7.7-1 1.4-1 2.2zm23 8.4a3 3 0 0 1-.8 2 2.4 2.4 0 0 1-1.8.8c-1.9 0-2.8-1.4-2.8-4.4l.1-2.6.2-2.8c0-3-1-4.5-3-4.5s-3 1.5-3 4.6v2.7a57.4 57.3 0 0 1 .1 2.6c0 3-.9 4.4-2.7 4.4a2.4 2.4 0 0 1-2-.8 2.8 2.8 0 0 1-.7-2v-13c0-.8.3-1.4.8-2 .5-.5 1.1-.7 2-.7a2.7 2.7 0 0 1 2.5 1.6c.9-1.3 2.4-2 4.5-2 2 0 3.7.5 4.8 1.6C73.3 8.3 74 10 74 12zm16.6-.6c0 1.3-.8 2.2-2.3 2.9a9.4 9.4 0 0 1-4 .9c-2.7 0-4.8-1-6.5-2.9a10 9.9 0 0 1-2.3-6.8c0-2.7.8-4.9 2.4-6.8a8 8 0 0 1 6.4-2.8c1.6 0 2.9.3 4 .7 1.5.6 2.3 1.6 2.3 2.9 0 .6-.2 1.2-.6 1.7a2 2 0 0 1-1.6.7l-1.8-.4c-.9-.3-1.5-.5-2-.5a3.5 3.5 0 0 0-2.9 1.4 4.8 4.8 0 0 0-1 3.2c0 1.1.3 2.2.9 3a3 3 0 0 0 2.7 1.4c.6 0 1.3-.1 2.2-.4.9-.3 1.5-.5 1.9-.5a2 2 0 0 1 1.6.8c.4.5.6 1 .6 1.5zm19.2.6c0 .8-.2 1.4-.7 2a2.5 2.5 0 0 1-2 .8c-1.1 0-1.9-.6-2.4-1.7a5.5 5.5 0 0 1-4.5 2c-2.5 0-4.5-1-6-3a10.6 10.5 0 0 1-2.2-6.6c0-2.5.7-4.7 2.1-6.5 1.6-2 3.6-3 6-3 2 0 3.5.6 4.6 2 .5-1.2 1.3-1.8 2.4-1.8.8 0 1.4.3 2 .9a2.7 2.7 0 0 1 .7 2zm-5.3-6.5c0-1.2-.3-2.2-.9-3a3.2 3.2 0 0 0-2.7-1.5c-1.2 0-2 .5-2.7 1.5a5.2 5.2 0 0 0-.9 3c0 1.2.3 2.3.9 3.1a3.2 3.2 0 0 0 2.7 1.4 3 3 0 0 0 2.7-1.4 5.4 5.4 0 0 0 .9-3zm18.8-6.8c0 1.1-.6 1.8-1.6 2.3l-3 1c-1.2.7-1.7 1.8-1.7 3.6v6.4a3 3 0 0 1-.8 2 2.5 2.5 0 0 1-1.9.8 2.4 2.4 0 0 1-2-.8 2.8 2.8 0 0 1-.6-2v-13a2.7 2.7 0 0 1 .7-2c.5-.5 1.1-.7 2-.7a2.7 2.7 0 0 1 2.5 1.6c1.2-1.3 2.4-2 3.7-2 .8 0 1.3.3 2 .8.4.6.7 1.2.7 2zm13.8.2c0 1.2-.5 2-1.4 2.2-.5.1-1.4.3-2.8.3v10.6c0 .8-.3 1.4-.8 2a2.5 2.5 0 0 1-1.8.8 2.5 2.5 0 0 1-2-.8 2.8 2.8 0 0 1-.7-2V11.2a5 5 0 0 1-2.4-.4c-.7-.4-1-1.1-1-2.1s.3-1.7 1-2a5 5 0 0 1 2.4-.5V4c0-2.6.9-4 2.7-4 1.7 0 2.6 1.4 2.6 4v2.2c1.4 0 2.3.1 2.8.3.9.3 1.4 1 1.4 2.2z"/>
  <defs>
    <linearGradient id="a" x2="1" gradientTransform="matrix(0 -27.6 27.6 0 89.7 24.7)" gradientUnits="userSpaceOnUse">
      <stop offset="0" stop-color="#04b6f0"/>
      <stop offset="1" stop-color="#3ecaf0"/>
    </linearGradient>
  </defs>
</svg>
