<svg xmlns="http://www.w3.org/2000/svg" viewBox="0 0 69 69">
  <path fill="#a5dbe8" d="M22.4 53a30.3 30.3 0 0 1 6-2 30.4 30.4 0 0 1 3.4-.6 105.6 105.6 0 0 1-2.1 6 19.8 19.8 0 0 1 0 1.2 24.5 24.5 0 0 1 4.8-.5c1.6 0 3.2.2 4.7.5a19.8 19.8 0 0 1 .1-1.2 105.4 105.4 0 0 1-2-6 30.4 30.4 0 0 1 9.3 2.5A30 30 0 0 1 57 60.6 34.4 34.4 0 0 0 34.5 0 34.5 34.5 0 0 0 12 60.6 30 30 0 0 1 22.4 53"/>
  <path fill="#525353" d="m46.6 53 2.2 7.3h.6c.4 0 .7.1.7.5v2l1.7 1.5a34.6 34.6 0 0 0 5.2-3.7A30 30 0 0 0 46.6 53m-4.2 0 2.6-.6a30.3 30.3 0 0 0-4.4-1.3 30.4 30.4 0 0 0-3.4-.6 105.4 105.4 0 0 0 2.1 6 19.8 19.8 0 0 0 0 1.2c1.7.3 3.5 1 5.1 1.6l-2-6.3"/>
  <path d="m17.2 64.3 1.2.7c.1-.7.4-1.6.4-2.4l-1.6 1.7m27.2-5.1a24.2 24.2 0 0 0-5.2-1.6 24.5 24.5 0 0 0-4.7-.5 24.5 24.5 0 0 0-10 2l-.2 1.1h20.4l-.3-1"/>
  <path fill="#525353" d="M18.8 62.8V61c0-.4.3-.7.7-.7h.7l2.2-7.4A30 30 0 0 0 12 60.6a34.6 34.6 0 0 0 5.2 3.7 24.6 24.6 0 0 1 1.5-1.4"/>
  <path d="m50.4 64.2.2.8a34 34 0 0 0 1.2-.7 25 25 0 0 0-1.5-1.4l.1 1.3"/>
  <path fill="#aa9678" d="m44.4 59.2.3 1h4.1L46.6 53a30.5 30.5 0 0 0-1.6-.6l-2.6.6 2 6.3"/>
  <path fill="#c4b6a1" d="M20.2 61.7"/>
  <path fill="#aa9678" d="M48.7 61.6H34.5V69c5.3 0 10.3-1.2 14.8-3.3-.3-1.3-.3-2.7-.4-4l-.2-.1"/>
  <path fill="#c4b6a1" d="M34.5 61.6H20c0 1.4-.3 3-.4 4 4.5 2.2 9.5 3.4 14.8 3.4v-7.4"/>
  <path fill="#786453" d="M34.5 61v.7Z"/>
  <path fill="#fff" d="M57.1 34.9"/>
  <path fill="#bbbcbd" d="M57.1 34.8"/>
  <path fill="#676a6a" d="m57 34.3.1.4v.2a4.1 4.1 0 0 1 0 .4 3.7 3.7 0 0 1-.1.5l.9-1-1-1 .2.5"/>
  <path d="M57 35.4v-.1l.1-.4v-.2a4 4 0 0 0 0-.4 3.7 3.7 0 0 0-.1-.4v-.2l-.4-.7a2.1 2.1 0 0 0-.1-.2 1.4 1.4 0 0 0-.2-.2h-.1a1 1 0 0 0-.2-.1.8.8 0 0 0-.3 0h-.2a1 1 0 0 0-.3 0v.1a1.4 1.4 0 0 0-.3.3 1.8 1.8 0 0 0 0 .1l-.4.7-.1.4V34.8c0 1.3.6 2.4 1.3 2.4l.4-.1a1.1 1.1 0 0 0 .2-.1v-.1a1.6 1.6 0 0 0 .4-.4l.1-.3a3.2 3.2 0 0 0 .3-.8zm-1.2-.9c-.3 0-.6-.4-.6-.9s.3-.9.6-.9.5.4.5.9-.2.9-.5.9z"/>
  <path fill="#fff" d="M55.8 32.7c-.3 0-.6.4-.6.9s.3.9.6.9.5-.4.5-.9-.2-.9-.5-.9"/>
  <path fill="#909393" d="M54.5 33.7a2.7 2.7 0 0 1 .4-.8 1.4 1.4 0 0 1 .3-.3 1 1 0 0 1 .3-.1h.5a1 1 0 0 1 .2 0v.1l.3.2a2.1 2.1 0 0 1 .1.2l.3.7-1.2-5.6-1.2 5.6"/>
  <path d="M39.4 34.8v-.4a3.3 3.3 0 0 0 0-.3 3.2 3.2 0 0 0-.1-.3 3 3 0 0 0-.1-.3 3.3 3.3 0 0 0-1.8-1.7 3.2 3.2 0 0 0-.6-.2 3.2 3.2 0 0 0-.6 0h-.6l-.6.2a3.2 3.2 0 0 0-.6.3l-.4.3a3.3 3.3 0 0 0-.6.8l-.2.3v.3H33v.3H33v.3a3.2 3.2 0 0 0 0 1l.2.6a3.3 3.3 0 0 0 .6 1c.3.3.5.5.8.6l.3.2h.3v.1H35.5l.3.1a3.2 3.2 0 0 0 2.2-.5 3.3 3.3 0 0 0 .9-.9 3.2 3.2 0 0 0 .5-1.8zm-3.2-.4a1.2 1.2 0 1 1 0-2.5 1.2 1.2 0 0 1 0 2.5z"/>
  <path fill="#fff" d="M36.2 32a1.2 1.2 0 1 0 0 2.4 1.2 1.2 0 0 0 0-2.5"/>
  <path fill="#bbbcbd" d="m34 32.5 2.2-7V24a19 19 0 0 0-3.8-.4h-1.5a19.2 19.2 0 0 0-11.4 4.8 21.4 21.4 0 0 0-1.1 1l-.2.3a23 23 0 0 0-1 1l-.3.3a23.8 23.8 0 0 0-1 1.2v.1a24.2 24.2 0 0 0-.8 1.2l-.2.2-.6 1h10.2l9.4-2.2"/>
  <path fill="#e3dddb" d="M42.6 31.7a30.7 30.7 0 0 0 0-2.7v-.3a43.2 43.2 0 0 0 0-2.2 194.3 194.3 0 0 0-.8-.4l-.3-.2h-.1a7.3 7.3 0 0 0-.2-.1 20 20 0 0 0-1.4-.7c-1.2-.5-2.7-1-3.6-1.1v1.6l2.2 6.8.6.8.1.3.2.3v.3l.1.3v.4h2.8a29.7 29.7 0 0 0 .4-3v-.1"/>
  <path fill="#fcb03f" d="M46.1 29.3"/>
  <path fill="#909393" d="M34 32.4a3.3 3.3 0 0 1 .4-.3 3.2 3.2 0 0 1 .6-.3 3.2 3.2 0 0 1 .6-.2 3.3 3.3 0 0 1 .6 0h.6a3.2 3.2 0 0 1 .6.2 3.3 3.3 0 0 1 1 .7l-2.2-7-2.2 7"/>
  <path fill="#676a6a" d="M33.2 36a3.2 3.2 0 0 1-.2-.6 3.2 3.2 0 0 1 0-1v-.6h.1l.1-.3.2-.3a3.3 3.3 0 0 1 .5-.7l-9.4 2.3 9.3 2.3a3.3 3.3 0 0 1-.6-1"/>
  <path fill="#e3dddb" d="M54.4 34.3v-.5l1.3-5.7v-3.2a5 5 0 0 0-3.2-1.3c-1.4 0-2.7.8-3.7 1.7-1 1.1-2 2.4-2.6 3.8v.2l.5.5a50 50 0 0 1 1.4 1.3l.6.6.6.7a63.5 63.5 0 0 1 1.2 1.2 73.1 73.1 0 0 1 1 1v.2h2.8v-.5m-8.2-5"/>
  <path fill="#525353" d="M12.7 38.3a26.1 26.1 0 0 1 1.3-2.9l.2-.4.1-.2.6-1 .2-.3a24.2 24.2 0 0 1 .8-1.2 23.8 23.8 0 0 1 1-1.3l.2-.2a23 23 0 0 1 1-1.1l.3-.2a21.4 21.4 0 0 1 1.1-1c1.6-5.3 6.6-8.4 12.2-8.4 2.2 0 4.5.6 6.4 1.8 2 1.2 3.3 2.4 4.4 4.4v.2a20.8 20.8 0 0 1 2.6 1.8 23.2 23.2 0 0 1 .8.7l.2.3.1-.2c.8-5 3.3-7.7 5.9-7.7 2 0 3.4 1.1 4.5 4.3a11.7 11.7 0 0 1 .9 1.1v.2-.2a24.2 24.2 0 0 0-46 15.3 26 26 0 0 1 1.2-3.8"/>
  <path fill="#fff" d="m57.8 34.8-.8 1-.1.3v.1a2.5 2.5 0 0 1-.2.2v.1l-.1.2a1.6 1.6 0 0 1-.2.2h-.1a1.1 1.1 0 0 1-.2.2h-.4c-.7 0-1.4-1-1.4-2.3h-2.8a88.5 88.5 0 0 1 1.6 1.8 114 114 0 0 1 1.4 1.8l.1.1a154.6 154.6 0 0 1 1.3 1.8l.2.1a237.9 237.9 0 0 1 1.4 1.9 24.1 24.1 0 0 0 1.2-7.5H57.8"/>
  <path d="M30.9 23.6h.2a19.2 19.2 0 0 1 1.3 0c1.3 0 2.6.1 3.8.4.9.2 2.4.6 3.6 1.1a20 20 0 0 1 1.4.7h.1l.2.1.2.1.8.5v-.1a12.6 12.6 0 0 0-11-7c-5.7 0-10.4 3.8-12 9a20.8 20.8 0 0 1 11.4-4.8"/>
  <path fill="#bbbcbd" d="M57.5 26.8a11.7 11.7 0 0 0-1-1v-.1a9.8 9.8 0 0 0-.4-.4L56 25l-.3-.2V28l1.2 5.6v.2l1 1v-.1h.8v-.2a24.1 24.1 0 0 0-1.2-7.6v-.2"/>
  <path d="M48.8 25.3c1-1 2.3-1.7 3.7-1.7a5 5 0 0 1 3.2 1.3l.3.2.1.2a9.8 9.8 0 0 1 .5.4c-1.1-3.2-2.9-5.2-4.8-5.2-2.6 0-4.8 3.6-5.6 8.6a14 14 0 0 1 2.6-3.8M45.3 56l-.8-.8a8 8 0 0 1-.6-.7l-.2-.3-.4-.9c-.2-.3-.2-.6-.3-1a6.8 6.8 0 0 1-.1-.7 6.6 6.6 0 0 1-.1-1.3v-.7a7.5 7.5 0 0 1 .2-.8c.2-.8.5-1.6 1-2.5l.2-.3.4-.6c2.3-3.9 3.5-6.8 3-11.3a36.2 36.2 0 0 0-.3-1.4 55.3 55.3 0 0 1-.2 1l-.1.3c-1 3-2.6 5.1-4.8 7.6a62 62 0 0 1-1 1 123.2 123.2 0 0 1-1.8 1.8l-.7.7-.9 1.1-.6 2-.3-.1c-4.4-1.7-7.4-4-7.4-4s2.3 3 6.1 5.7a12.4 12.4 0 0 0 1.1.8c-.2 2.5 1 4.9 6 5.6h2.5V56"/>
  <path fill="#9f2254" d="M42.6 49.6c4.4.7 11 .6 17.8-2.6h.5s-4.7 4.8-10.2 7.5l-.5.2a21 21 0 0 1-4.9 1.5h-.1l-.8-.9a7.9 7.9 0 0 1-.6-.7 7.7 7.7 0 0 1-.6-1.2 7 7 0 0 1-.4-1 6.7 6.7 0 0 1-.3-2 7 7 0 0 1 0-.8h.1"/>
  <path fill="#fcb03f" d="M39.5 44.6a122 122 0 0 0 1.7-1.8 63.1 63.1 0 0 0 1-1 21.2 21.2 0 0 0 5-8v-.5l.4-.3c-.3-1.3-.9-2.7-1.5-3.7L46 29a23.2 23.2 0 0 0-.8-.7 20.8 20.8 0 0 0-2.5-1.8v3.3a34 34 0 0 1 0 1v.9a29.7 29.7 0 0 1-.4 3l-.4 1.6c-.6 2.7-2 5.1-3.1 7.7l-.8 2v.2a46 46 0 0 1 .8-.9l.8-.7"/>
  <path fill="#525353" d="M24.9 59c1.6-.6 3-1 4.9-1.4a19.8 19.8 0 0 0-.1-1.2 105.6 105.6 0 0 0 2-6 30.4 30.4 0 0 0-3.3.6 30.4 30.4 0 0 0-4.4 1.3l2.6.6-2 6.3.3-.1"/>
  <path fill="#df0067" d="M56 40.3a154.6 154.6 0 0 0-1.4-1.8 114 114 0 0 0-1.5-1.9 88.5 88.5 0 0 0-1.6-1.8v-.1a73.1 73.1 0 0 0-1.3-1.5 63.5 63.5 0 0 0-.9-.8 59.7 59.7 0 0 0-.6-.7l-.6-.6a50.8 50.8 0 0 0-1.4-1.3 31.2 31.2 0 0 0-.6-.5c.4 1.2 1 2.5 1.2 3.8l.2 1c.6 4.5-.9 7.5-3.2 11.4a194.3 194.3 0 0 1-.5.8c-.5 1-.9 1.8-1 2.5a7.5 7.5 0 0 0-.2.8c4.5.7 11.3.9 18.3-2.6l-3.4-4.7a237.9 237.9 0 0 0-1.4-1.9l-.2-.1"/>
  <path fill="#aa9678" d="m24.3 60.4 2.3-7.5-2.6-.6-1.6.6-2.3 7.5h4.2"/>
  <path fill="#fff" d="m25.9 57.1.7.3a24.1 24.1 0 0 0 8 1.3 24.1 24.1 0 0 0 9-1.7l.4-.2a24.7 24.7 0 0 0 .7-.3l.6-.3h-2.7c-5-.7-6-3.1-5.9-5.6a12.4 12.4 0 0 1-1-.8c-4-2.7-6.2-5.7-6.2-5.7s3 2.3 7.4 4l.3.1.6-2V46l.9-2c1.1-2.6 2.5-5 3.1-7.7l.4-1.5h-2.8a3.2 3.2 0 0 1-.5 1.8 3.3 3.3 0 0 1-1.5 1.2 3.2 3.2 0 0 1-1.6.2h-.3l-.3-.1-.3-.1a3.3 3.3 0 0 1-.3-.2 3.3 3.3 0 0 1-.8-.5l-9.3-2.3H14.3l-.1.2-.2.4a26 26 0 0 0-.7 1.5 26.1 26.1 0 0 0-.6 1.4 26 26 0 0 0-1.1 3.8c1.6 4.8 4.7 9 8.8 12l.3.3a24.2 24.2 0 0 0 2.2 1.3 24 24 0 0 0 3 1.4"/>
  <path fill="#8b7460" d="M50.3 62.9a20.1 20.1 0 0 1-.1-2 .7.7 0 0 0-.7-.7h-30a.7.7 0 0 0-.7.8v1.9a19.8 19.8 0 0 1-.4 2.1l1.3.7a21.2 21.2 0 0 0 .5-4h28.6a21.2 21.2 0 0 0 .5 4 34.8 34.8 0 0 0 1.3-.7 19.8 19.8 0 0 1-.3-2.1"/>
</svg>
