<svg xmlns="http://www.w3.org/2000/svg" viewBox="0 0 69 69">
  <path fill="#f6d340" d="M0 34.5A34.8 34.8 0 0 1 34.5 0a34.5 34.5 0 0 1 0 69A34.8 34.8 0 0 1 0 34.5zm25.6-.6c1.2-1.6 1.2-3.2-.4-4.8L22 25.6c-.6-1-.6-2 0-3 1.3-1.5 2.6-1.5 4.2-.2l5.4 5.4c2.9 3.2 2.9 3.2.3 6.4a2 2 0 0 0-.3.3l2.6 2.2 1-1c1.9-1.8 2.5-1.8 4.4 0l6.7 7.1c1.6 1.3 1.6 2.6.3 3.8-1.2 1-2.2 1-3.8-.3l-3.2-3.2c-1.6-1.6-3.5-1.3-5.4.3l5.7 5.5a10.9 10.9 0 0 0 1.3 1.3c2.9 1.9 5.4 1.6 8-1 2.6-2.6 2.9-5.1 1-8l-3-3.2c4.9-6 4.9-12.1.7-16.6a11.5 11.5 0 0 0-7.3-3.8c-4.2-.3-7.4 1-10.3 3.8l-2.8-2.6c-1.3-.6-2.9-1.2-4.2-1.2-2.5.3-4.5 2.2-5.4 4.8-1 2.2 0 4.1 1.3 5.4zm-7.4 16h14c-.3-2.3-1.5-3.9-4-3.9H22v-5.8c0-2.5-1.2-3.8-3.8-4.1z"/>
  <path fill="#302425" d="m25.6 33.9-6.4-6.1c-1.3-1.3-2.3-3.2-1.3-5.4 1-2.6 2.9-4.5 5.4-4.8 1.3 0 2.9.6 4.2 1.2l2.8 2.6c3-2.9 6.1-4.2 10.3-3.8a11.5 11.5 0 0 1 7.3 3.8c4.2 4.5 4.2 10.5-.6 16.6l2.9 3.2c1.9 2.9 1.6 5.8-1 8s-5.1 2.9-8 1a10.9 10.9 0 0 1-1.3-1.3l-5.7-5.5c1.9-1.6 3.8-1.9 5.4-.3l3.2 3.2c1.6 1.3 2.6 1.3 3.8.3 1.3-1.2 1.3-2.5-.3-3.8l-6.7-7c-2-2-2.5-2-4.5 0l-1 1-2.5-2.3a2 2 0 0 1 .3-.3c2.6-3.2 2.6-3.2-.3-6.4l-5.4-5.4c-1.6-1.3-2.9-1.3-4.2.3-.6 1-.6 1.9 0 2.9l3.2 3.5c1.6 1.6 1.6 3.2.4 4.8zm11.1-2.3c3.9-1.6 5.5 2 7.7 3.5 2.2-2.2 3.2-5 2.2-8-1-3.1-2.8-5-6-5.4-2.9-.6-5.5.3-7.4 2.6 2 2.2 4.8 3.5 3.5 7.3z"/>
  <path fill="#312525" d="M18.2 49.8V36.1c2.6.3 3.8 1.6 3.8 4.1V46h6.1c2.6 0 3.8 1.6 4.2 3.8z"/>
  <path fill="#f3d13e" d="M36.7 31.6c1.3-3.8-1.6-5-3.5-7.3 2-2.3 4.5-3.2 7.4-2.6 3.2.3 5 2.3 6 5.5 1 2.8 0 5.7-2.2 8-2.2-1.7-3.8-5.2-7.7-3.6z"/>
</svg>
