<svg xmlns="http://www.w3.org/2000/svg" viewBox="0 0 89 53">
  <path fill="#7d57a4" d="M8.3 0h72.4A8.3 8.3 0 0 1 89 8.3V36a8.3 8.3 0 0 1-8.3 8.3h-26l3.6 8.7-15.7-8.8H8.3A8.3 8.3 0 0 1 0 36V8.3A8.3 8.3 0 0 1 8.3 0Z"/>
  <path fill="#fff" d="M4.5 7.5a3 3 0 0 1 2.3-1.1Q9.5 6.2 9.9 9q1.7 11.4 3.7 19.3l8-15.1q1-2.1 2.7-2.2 2.4-.2 3 3a67.8 67.9 0 0 0 3.4 12.5q1.5-13.9 4.8-20A2.8 2.8 0 0 1 38 4.8a3.2 3.2 0 0 1 2.3.8 2.8 2.8 0 0 1 1.1 2 3 3 0 0 1-.3 1.8q-2.1 4-3.5 13.2-1.4 8.8-1 13.9a4.4 4.4 0 0 1-.4 2.3 2.3 2.3 0 0 1-2 1.4c-1 0-1.9-.4-2.8-1.4q-5.1-5.2-8.1-15.5L18 33.8q-3.2 6.2-5.5 6.3-1.5.1-2.6-2.5Q7.1 30.5 4 10a3.1 3.1 0 0 1 .6-2.5zM82.7 13.2A8.4 8.4 0 0 0 76.8 9a9.7 9.7 0 0 0-2-.2q-5.2 0-8.5 5.5a19.3 19.4 0 0 0-2.8 10.2q0 4.2 1.8 7.2A8.4 8.4 0 0 0 71 36a9.4 9.4 0 0 0 2 .3q5.2 0 8.5-5.5a19.6 19.6 0 0 0 2.8-10.3q0-4.2-1.7-7.2zM78 23.3q-.8 3.6-2.8 5.4-1.6 1.5-3 1.2t-2-2.4a9.4 9.4 0 0 1-.7-3.3 13 13 0 0 1 .3-2.6 12 12 0 0 1 1.9-4.4q1.8-2.6 3.8-2.2 1.3.3 2.1 2.3a9.4 9.4 0 0 1 .6 3.3 13 13 0 0 1-.2 2.7zM59.9 13.2A8.4 8.4 0 0 0 54 9a9.7 9.7 0 0 0-2-.2q-5.2 0-8.5 5.5a19.3 19.3 0 0 0-2.8 10.2q0 4.2 1.8 7.2a8.4 8.4 0 0 0 5.8 4.2 9.4 9.4 0 0 0 2 .3q5.2 0 8.5-5.5a19.6 19.6 0 0 0 2.9-10.3q0-4.2-1.8-7.2zm-4.6 10.1q-.8 3.6-2.8 5.4-1.6 1.5-3 1.2-1.3-.3-2-2.4a9.4 9.4 0 0 1-.7-3.3 13 13 0 0 1 .3-2.6 12.1 12.1 0 0 1 1.9-4.4q1.8-2.6 3.8-2.2 1.3.3 2.1 2.4a9.4 9.4 0 0 1 .6 3.3 13 13 0 0 1-.2 2.6z"/>
</svg>

