<svg xmlns="http://www.w3.org/2000/svg" width="121.3" height="107" viewBox="0 0 255 225">
  <path fill="#00ACD7" d="m40 101 2-3 1-1h36v1l-2 3H40zm-15 9 2-3h47l-1 3H25zm24 10v-1l1-3h21l1 1v2l-1 1H49zm104-21-17 5-3-1a13 13 0 0 0-4-4 17 17 0 0 0-18 1 21 21 0 0 0-11 19c0 8 6 15 14 16 7 1 12-1 17-7l3-3h-20c-2 0-2-2-2-3l5-11c1-1 1-2 3-2h36v8a43 43 0 0 1-8 20 42 42 0 0 1-29 17 35 35 0 0 1-27-7 31 31 0 0 1-13-22 39 39 0 0 1 9-29 44 44 0 0 1 28-17c9-2 18-1 27 5 5 3 9 8 11 14 1 1 0 1-1 1z"/>
  <path fill="#00ACD7" d="M186 155a38 38 0 0 1-24-9 31 31 0 0 1-11-20 38 38 0 0 1 8-30 42 42 0 0 1 28-16 37 37 0 0 1 29 5 31 31 0 0 1 14 22 39 39 0 0 1-12 34 46 46 0 0 1-24 13l-8 1zm24-41v-3a17 17 0 0 0-21-13c-9 2-15 8-17 17-2 8 2 16 9 19 5 2 11 2 16-1a22 22 0 0 0 13-19z"/>
</svg>
