<svg xmlns="http://www.w3.org/2000/svg" width="100" height="61.3" viewBox="0 0 442 271">
  <defs>
    <linearGradient id="svg--nodejs--b" x1="-.3" x2="1.3" gradientTransform="rotate(116 53 203) scale(86.48)" gradientUnits="userSpaceOnUse">
      <stop offset=".3" stop-color="#3E863D"/>
      <stop offset=".5" stop-color="#55934F"/>
      <stop offset=".8" stop-color="#5AAD45"/>
    </linearGradient>
    <linearGradient id="svg--nodejs--d" x1="-.5" x2=".6" gradientTransform="rotate(-36 551 -214) scale(132.798)" gradientUnits="userSpaceOnUse">
      <stop offset=".6" stop-color="#3E863D"/>
      <stop offset=".7" stop-color="#619857"/>
      <stop offset="1" stop-color="#76AC64"/>
    </linearGradient>
    <linearGradient id="svg--nodejs--f" x1="0" x2="1" gradientTransform="translate(193 280) scale(97.417)" gradientUnits="userSpaceOnUse">
      <stop offset=".2" stop-color="#6BBF47"/>
      <stop offset=".4" stop-color="#79B461"/>
      <stop offset=".5" stop-color="#75AC64"/>
      <stop offset=".7" stop-color="#659E5A"/>
      <stop offset=".9" stop-color="#3E863D"/>
    </linearGradient>
    <clipPath id="svg--nodejs--a">
      <path d="m239 227-42 24-3 4v49c0 2 1 3 3 4l42 25h5l42-25c2-1 3-2 3-4v-49l-3-4-42-24a5 5 0 0 0-5 0"/>
    </clipPath>
    <clipPath id="svg--nodejs--c">
      <path d="m195 307 2 1 36 21 6 4a5 5 0 0 0 4 0l44-81-1-1-27-16-15-8-1-1zm0 0"/>
    </clipPath>
    <clipPath id="svg--nodejs--e">
      <path d="m241 226-2 1-42 24 45 82h2l42-25c2 0 2-2 3-3l-46-79a5 5 0 0 0-2 0"/>
    </clipPath>
  </defs>
  <path fill="#689f63" d="m219 271-5-1-13-8c-2-1-1-2 0-2l6-3h1l10 7h1l40-23 1-2v-46l-1-1-40-23h-1l-40 23-1 1v46l1 1 11 7c6 3 10-1 10-4v-46l1-1h5l1 1v46c0 8-4 12-12 12l-9-2-11-6c-2-2-4-5-4-8v-46c0-3 2-5 4-7l40-23h9l40 23c2 2 4 4 4 7v46c0 3-2 6-4 8l-40 23-4 1"/>
  <path fill="#689f63" d="M231 239c-17 0-21-8-21-15l1-1h5l1 1c1 5 3 8 14 8 8 0 12-2 12-6 0-3-1-5-14-6-11-1-18-3-18-12 0-8 7-13 18-13 13 0 19 4 20 14a1 1 0 0 1-1 1h-5l-1-1c-1-5-4-7-13-7s-10 3-10 6c0 2 1 3 14 5 12 2 18 4 18 13 0 8-7 13-20 13m49-49h1l1-1-1-1h-1zm-2-3h3c1 0 3 0 3 2l-2 2c2 0 2 1 2 2v2h-2v-3h-2v3h-2zm11 4c0 4-4 8-8 8a8 8 0 0 1 0-16c4 0 8 4 8 8"/>
  <path fill="#333" fill-rule="evenodd" d="M95 91c0-2-1-4-3-5L50 62l-2-1h-1l-2 1L3 86c-2 1-3 3-3 5v65l1 2h3l25-14 3-4v-31l2-5 11-6a5 5 0 0 1 5 0l11 6 2 5v31l3 4 25 14h3l1-2zm200 34-1 1-14 8h-2l-14-8-1-1v-17l1-1 14-9h2l14 9 1 1zm4-125a3 3 0 0 0-4 3v65a2 2 0 0 1-3 1l-10-6h-5l-43 24-2 5v49l2 4 43 25h5l42-25c2-1 3-2 3-4V19c0-2-1-4-3-5zm141 107 2-4V91l-2-4-42-25h-5l-43 25-2 4v49l2 5 42 24h5l26-15a3 3 0 0 0 0-4l-43-24-1-3v-15l1-2 13-8h3l13 8 2 2v12l1 2h2zm0 0"/>
  <path fill="#689f63" fill-rule="evenodd" d="M395 105h1l8 5v11l-8 5h-1l-9-5v-11zm0 0"/>
  <g clip-path="url(#svg--nodejs--a)" transform="translate(-78 -164)">
    <path fill="url(#svg--nodejs--b)" d="m331 247-118-58-61 124 118 58zm0 0"/>
  </g>
  <g clip-path="url(#svg--nodejs--c)" transform="translate(-78 -164)">
    <path fill="url(#svg--nodejs--d)" d="m144 264 84 113 111-81-84-114zm0 0"/>
  </g>
  <g clip-path="url(#svg--nodejs--e)" transform="translate(-78 -164)">
    <path fill="url(#svg--nodejs--f)" d="M197 226v107h92V226zm0 0"/>
  </g>
</svg>
