<svg xmlns="http://www.w3.org/2000/svg" width="137.5" height="32" viewBox="0 0 305 71">
  <path fill="url(#svg--opencart--a)" d="M248 256c0 37-11 68-33 94a115 115 0 0 1-90 40c-37 0-68-14-91-40a138 138 0 0 1-33-94c0-38 11-69 33-95a116 116 0 0 1 91-39c37 0 67 13 90 39 22 26 33 57 33 95zm-73 0c0-17-4-32-12-43a44 44 0 0 0-38-20c-17 0-29 7-38 20a72 72 0 0 0-13 43c0 16 4 31 13 43a44 44 0 0 0 38 19c16 0 29-6 38-19a75 75 0 0 0 12-43zm340 0a145 145 0 0 1-31 91c-21 28-49 43-83 43a92 92 0 0 1-60-21 530 530 0 0 0 2 53c0 44-13 66-39 66a34 34 0 0 1-27-11 39 39 0 0 1-10-28V165c0-11 3-20 10-27 7-8 16-12 27-12 15 0 27 8 34 24a77 77 0 0 1 63-28c34 0 62 14 83 42a146 146 0 0 1 31 91zm-74 0c0-17-4-32-12-43a44 44 0 0 0-38-20c-17 0-29 7-38 20a73 73 0 0 0-13 43c1 16 5 31 13 43a44 44 0 0 0 38 19c16 0 29-6 38-19a75 75 0 0 0 12-43zm341-8c0 12-3 20-8 25-6 5-15 7-27 7H614c0 14 6 25 20 33 10 6 23 9 39 9 12 0 26-4 43-12s27-12 32-12c9 0 16 3 22 9a32 32 0 0 1 9 23c0 20-15 36-46 47-23 8-46 13-70 13-38 0-69-13-93-38-23-26-35-58-35-96a133 133 0 0 1 37-95 120 120 0 0 1 91-39c34 0 62 12 85 37a127 127 0 0 1 34 89zm-73-19a43 43 0 0 0-16-31 47 47 0 0 0-32-14 47 47 0 0 0-32 14c-10 10-15 20-15 31zm321 117c0 11-4 20-11 28a34 34 0 0 1-26 11c-26 0-38-20-38-61l1-37 2-38c0-43-14-64-42-64s-42 21-42 65l1 37a799 799 0 0 1 2 37c0 41-13 61-38 61a34 34 0 0 1-27-11 39 39 0 0 1-10-28V165c0-11 3-20 10-27 7-8 16-11 27-11a37 37 0 0 1 36 23c12-19 33-28 63-28 28 0 51 7 67 22s25 37 25 65zm231-8c0 17-11 30-33 40a131 131 0 0 1-55 12c-37 0-67-14-90-40a138 138 0 0 1-33-95c0-37 11-68 34-94 22-26 52-39 89-39 22 0 40 3 56 9 21 8 32 22 32 40 0 9-3 17-9 24a27 27 0 0 1-22 10c-6 0-14-2-25-6-12-4-21-6-27-6a49 49 0 0 0-41 19 67 67 0 0 0-14 44c0 16 4 31 12 42a43 43 0 0 0 38 20c8 0 18-2 30-6 13-4 22-7 27-7 9 0 16 4 22 11s9 14 9 22zm267 8c0 11-3 20-10 28a35 35 0 0 1-27 11c-16 0-27-8-34-24a77 77 0 0 1-63 29c-34 0-62-15-84-43a147 147 0 0 1-30-92c0-34 10-65 30-91 22-28 50-42 84-42 27 0 48 9 63 28 7-16 18-24 34-24 11 0 19 4 27 12a38 38 0 0 1 10 27zm-74-91c0-16-4-31-12-42a44 44 0 0 0-38-20c-16 0-29 7-38 20a72 72 0 0 0-12 43c0 16 4 31 12 43a45 45 0 0 0 38 19c17 0 29-6 38-19a75 75 0 0 0 12-43zm262-95c0 16-8 26-23 32l-42 15c-16 9-23 25-23 49v90c0 11-4 20-11 28a35 35 0 0 1-26 11 34 34 0 0 1-27-11 39 39 0 0 1-10-28V165a38 38 0 0 1 10-27c7-8 16-11 27-11a37 37 0 0 1 36 23c16-19 33-28 51-28 11 0 19 3 27 11 7 8 11 17 11 27zm192 3c0 17-7 27-19 31-7 2-20 4-40 4v148c0 11-3 20-10 28a35 35 0 0 1-26 11 35 35 0 0 1-27-11 39 39 0 0 1-10-28V198c-15 0-26-2-33-6-10-5-15-15-15-29s5-23 15-28c7-4 18-6 33-6V98c0-37 12-56 37-56 24 0 36 19 36 56v31c20 0 33 1 40 4 12 4 19 14 19 30z" transform="matrix(.16 0 0 .15984 0 -7)"/>
  <defs>
    <linearGradient id="svg--opencart--a" x1="0" x2="1" y1="0" y2="0" gradientTransform="rotate(-90 818 -432) scale(384.236)" gradientUnits="userSpaceOnUse">
      <stop offset="0" stop-color="#04b6f0"/>
      <stop offset="1" stop-color="#3ecaf0"/>
    </linearGradient>
  </defs>
</svg>
