<svg xmlns="http://www.w3.org/2000/svg" width="69" height="69" viewBox="0 0 300 300">
  <path fill="#a0dbe8" d="m97 231 7-3 9-3a129 129 0 0 1 25-5l-9 26v5a108 108 0 0 1 42 0v-5l-9-26a121 121 0 0 1 41 11c17 7 32 18 45 33a150 150 0 1 0-196 0c13-15 28-26 45-33z"/>
  <path fill="#525353" d="M107 258c7-3 15-6 22-7v-5l9-26a121 121 0 0 0-25 5l-9 3 11 3zm-26 16 1-8c0-2 1-4 3-4h2l10-31c-17 7-33 18-45 33l22 16 7-6zm122-43 9 31h3c2 1 3 2 3 4l1 8 6 6c8-4 16-10 23-16-13-14-28-26-45-33zm-18-1 10-2-8-3a129 129 0 0 0-25-5l9 26v5c7 1 15 4 22 7z"/>
  <path d="M150 263h21v-12a108 108 0 0 0-42 0v11zm-75 17 5 3 1-9-6 6zm31-17h23v-12c-8 1-15 4-22 7zm113 11 1 9 5-3-6-6zm-25-11-1-5c-7-3-15-6-22-7v11z"/>
  <path fill="#aa9678" d="m106 263 1-5 8-28-11-2-7 3-10 31h11zm87-5 1 4h18l-9-31-8-3-10 2z"/>
  <path fill="#c0b098" d="M88 269zm62 0H88l-2 17c19 9 41 15 64 15z"/>
  <path fill="#aa9678" d="M212 269zm0 0h-62v32c23 0 45-6 64-15a90 90 0 0 1-2-17z"/>
  <path fill="#8b7460" d="m219 274-1-8c0-2-1-4-3-4H85c-2 0-3 2-3 3a118 118 0 0 1-2 18l5 3c2-6 3-11 3-17h124l2 17 6-3-1-9z"/>
  <g transform="translate(-105 -11)">
    <path fill="#525353" d="m298 252-2-2 2 2z"/>
    <path fill="#aa9678" d="m301 256-3-4 3 3z"/>
    <path fill="#fff" d="M353 163z"/>
    <path fill="#bbbcbd" d="m355 128-4-5-2-2h-1l-1-1v14l6 24v1l4 4h3v-1c0-12-2-23-5-33v-1zm-2 35z"/>
    <path fill="#676a6a" d="M353 161v6l4-4-4-4v2z"/>
    <path d="M353 165v-7l-2-3v-1l-1-1h-5l-1 1v1h-1l-1 3v2l-1 2v1c0 5 3 10 6 10h2l1-1 1-1 1-1v-1l1-1v-3zm-5-4c-2 0-3-1-3-4 0-2 1-3 2-3 2 0 3 1 3 3 0 3-1 4-2 4z"/>
    <ellipse cx="347.5" cy="157.5" fill="#fff" rx="2.3" ry="3.9"/>
    <path fill="#909393" d="m342 158 1-3 1-1 1-1h5v1l1 1 2 3-6-24-5 24z"/>
    <path d="M276 163v-5l-1-1v-1l-3-3-4-3-3-1a12 12 0 0 0-5 0l-3 1-2 1-2 1-3 4-1 1v1l-1 1v6l1 3 3 4 3 3 2 1h2v1h3l6-1 2-1 4-4 1-3 1-5zm-14-2c-3 0-5-2-5-5s2-6 5-6 6 3 6 6c0 2-3 5-6 5z"/>
    <circle cx="262.3" cy="155.6" r="5.3" fill="#fff"/>
    <path fill="#bbbcbd" d="m253 153 9-30v-7c-5-2-11-2-16-2h-7c-10 1-19 3-28 8-8 3-15 8-21 13l-5 5-1 1-5 4v1l-5 5v1l-4 5v1l-3 5h45z"/>
    <path fill="#e2dddb" d="M290 149v-22l-3-2h-1v-1h-1l-1-1-6-3-16-4v7l10 29 3 4v1l1 1v4h12l2-13z"/>
    <path fill="#fbb040" d="M306 139zm-29 66a534 534 0 0 0 11-12 93 93 0 0 0 22-35v-2l1-1-6-16-1-1-3-3-11-8v23l-2 13-1 6c-3 12-9 23-14 34l-3 9-1 1 4-4 4-4z"/>
    <path fill="#909393" d="m253 153 2-2 2-1 3-1a12 12 0 0 1 5 0l3 1 4 3-10-30z"/>
    <path fill="#676a6a" d="m249 168-1-3c0 1 0 1 0 0v-5h1v-3l1-1 3-3-41 10 40 10-3-5z"/>
    <path fill="#e2dddb" d="m341 160 1-2 5-24v-14c-4-4-9-6-14-6-6 0-12 3-16 8-5 4-8 10-11 16l-1 1 3 2 6 6 3 2 2 3 4 4 2 2 4 4v1h12v-3zm-35-21z"/>
    <path fill="#525353" d="m160 178 3-6v-2l3-4 1-2v-1l3-5 1-1 3-5 5-6v-1l5-4 1-1 5-5c6-22 27-39 52-39a54 54 0 0 1 48 30v1l11 8 3 3 1 1h1v-1c3-22 13-37 24-37 9 0 16 8 21 22l4 5v1-1a105 105 0 0 0-200 66 138 138 0 0 1 5-16z"/>
    <path fill="#fff" d="m357 163-4 4-1 1v2h-1v1l-1 1-1 1h-2c-3 0-6-5-6-10h-12l7 8 6 7v1l6 7 1 1 6 8c3-10 5-21 5-32z"/>
    <path d="M239 114h7l16 1v3-2a118 118 0 0 1 23 8l1 1 4 2v-1h-1a54 54 0 0 0-48-30c-24 0-45 17-51 39a87 87 0 0 1 49-21zm23 4v1m55 3c4-5 10-8 16-8 5 0 10 2 14 6l1 1h1l2 2c-5-14-12-23-21-23-11 0-21 16-24 38 3-6 6-12 11-16z"/>
    <path fill="#fff" d="m217 260 3 1a105 105 0 0 0 74-2l2-1a42 42 0 0 0 6-2h-12c-21-3-26-14-25-25l-5-3c-17-12-27-25-27-25s13 10 32 18h1l3-9 1-1 3-8c5-11 11-22 14-34l1-6h-12l-1 5-1 3-4 3-2 2-6 1h-2l-1-1h-1l-1-1h-2l-3-3-41-10h-44v1l-1 2-3 5-1 1-2 6v1a85 85 0 0 0-5 16c7 21 21 40 38 52l2 2 9 5 13 7z"/>
    <path fill="#9f2255" d="M290 227v9l1 3a30 30 0 0 0 4 9v1l1 1 2 2 3 3v1h1a73 73 0 0 0 21-7l2-1c25-11 45-32 45-32-30 15-60 14-80 11z"/>
    <path fill="#e2066f" d="m348 187-5-8h-1l-6-8-7-8v-1l-4-4-2-2-3-4-3-3-3-2-6-6-3-2h1l5 16v5c3 19-3 32-13 49l-3 4-4 11-1 3c20 3 49 4 80-11l-15-21-6-8h-1z"/>
    <path d="m301 256-3-4-2-2-1-1v-1l-2-4-2-4-1-4a32 32 0 0 1 0-9l1-3 4-11 3-4c10-17 16-29 13-49v-5l-1 3v1c-5 13-12 23-22 34l-4 5-7 7-4 3-4 4-3 9h-1c-19-8-32-18-32-18a140 140 0 0 0 32 28c-1 11 4 22 25 25h12l-1-1z"/>
  </g>
</svg>
