<svg xmlns="http://www.w3.org/2000/svg" width="90" height="53.55" viewBox="0 0 254.1 151.2">
  <path fill="#7d57a4" d="M24 0h206a24 24 0 0 1 24 24v79a24 24 0 0 1-24 23h-74l10 25-44-25H24a24 24 0 0 1-24-23V24A24 24 0 0 1 24 0Z"/>
  <path fill="#fff" d="M13 21a9 9 0 0 1 6-3q8 0 9 8 5 32 11 55l23-43q3-6 7-7 7 0 9 9a194 194 0 0 0 10 36q4-40 13-58a8 8 0 0 1 7-4 9 9 0 0 1 7 2 8 8 0 0 1 3 6 9 9 0 0 1-1 5q-6 11-10 37t-3 40a13 13 0 0 1-1 7 7 7 0 0 1-6 4l-8-4Q75 96 66 66L51 96q-9 18-15 18-5 1-8-7-8-20-17-78a9 9 0 0 1 2-8zM236 38a24 24 0 0 0-17-12 28 28 0 0 0-5-1q-15 0-25 16a55 55 0 0 0-8 29q0 12 5 21a24 24 0 0 0 17 12 27 27 0 0 0 6 0q15 0 24-15a56 56 0 0 0 8-30q0-12-5-20zm-13 29q-2 10-8 15-5 4-8 3-4 0-6-6a27 27 0 0 1-2-10 37 37 0 0 1 0-8 34 34 0 0 1 6-12q5-7 11-6 4 1 6 6a27 27 0 0 1 2 10 37 37 0 0 1-1 8zM171 38a24 24 0 0 0-17-12 28 28 0 0 0-5-1q-15 0-25 16a55 55 0 0 0-8 29q0 12 5 21a24 24 0 0 0 17 12 27 27 0 0 0 5 0q16 0 25-15a56 56 0 0 0 8-30q0-12-5-20zm-13 29q-2 10-8 15-5 4-8 3-4 0-7-6a27 27 0 0 1-1-10 37 37 0 0 1 0-8 35 35 0 0 1 6-12q5-7 11-6 3 1 6 6a27 27 0 0 1 2 10 37 37 0 0 1-1 8z"/>
</svg>
