<svg xmlns="http://www.w3.org/2000/svg" viewBox="0 0 700 70">
  <path fill="#0F59A5" d="M14.7 68.6H0V0h14.7v26H42V0h15v68.6H42V37.8H14.8v30.8zm99.8-2v2H99.8c-.8-2.3-1-3-1.3-6-3 3-7.6 7.4-17 7.4-7.7 0-15.8-4.3-15.8-14.8 0-10 6.5-15 15.2-16.3L93 37c2.2-.4 4.8-1.3 4.8-4 0-5.8-5.4-6-9-6-6.8 0-8 4-8.3 7H67.4C69 18.7 80 16.6 90.7 16.6c7.3 0 20.8 2 20.8 14.7v27.5c0 6 1.4 7.3 3 8zM98 43.6c-1.3 1.3-3.5 2-9.2 3-5 1-9.3 2-9.3 7.5 0 4.8 3.7 6 6.4 6 6 0 12-3.6 12-10v-6.3zm58.3 25v-31c0-3.7-.2-10-9-10-6 0-10.7 4-10.7 11.7v29.2H123v-51h13V25h.2c2-3 5.8-8.7 15.7-8.7 10 0 18 5.8 18 17v35.3h-13.7zm59.7 0V62c-3.3 6-9.6 7.8-15.2 7.8-15.6 0-22-13.5-22-27.4 0-17.5 10.2-26.2 21.7-26.2 8.8 0 13.3 4.7 15.3 8V0h13.7v68.6H216zM204 59c8.8 0 12.2-7 12.2-14.6 0-8-2.4-16.4-11.8-16.4-8.7 0-11.7 7.5-11.7 15.6.2 6 2.6 15.4 11.4 15.4zm58.6 11c-14.6 0-26-7-26-27.8 0-6 2.3-25.7 25-25.7 10.4 0 24.6 4.8 24.6 28v2.3h-35.8c.4 3.8 1.2 12.4 12.3 12.4 3.8 0 7.7-2 8.8-5.6h14C282 66 271.5 70 262.5 70zm9.4-32c-.7-8-6-10.6-10.5-10.6-6.5 0-10 4-10.7 10.7H272zm36.5 30.6h-13.7V0h13.7v68.6zm32.5-42c-7.5 0-8.4 2.6-8.4 5 0 8 32.6 2 32.6 21 0 14.7-14.7 17.4-22.8 17.4-12 0-24.7-4-25-17.5h14c0 4.3 2.7 7.4 11.4 7.4 7 0 8.7-3.5 8.7-5.5 0-8.5-32.3-2-32.3-21.2 0-7.4 4.8-17 21-17 10.3 0 22.4 2.4 23.5 17 0-.2-13.5-.2-13.5-.2-.6-3-1.8-6.5-9.2-6.5zm46.5-2.2c2.2-3.2 6.5-8 15.2-8 11.6 0 21.8 8.7 21.8 26.2 0 14-6.5 27.3-22 27.3-5.7 0-11.5-2-15.3-8v6.5h-13.4V0h13.7v24.4zm-.5 20c0 7.5 3.4 14.6 12 14.6 9 0 11.4-9.4 11.4-15.4 0-8-3-15.6-11.6-15.6-9.4 0-11.8 8.2-11.8 16.4zm91.4 22.3v2h-14.8c-.8-2.4-1-3.2-1.3-6-3 3-7.5 7.3-17 7.3-7.7 0-15.8-4.3-15.8-14.8 0-10 6.5-15 15.2-16.3l12.4-2c2.4-.4 5-1.3 5-4 0-5.8-5.5-6-9-6-7 0-8 4-8.4 7h-13.2c1.6-15.5 12.6-17.6 23.3-17.6 7.4 0 20.8 2 20.8 14.7v27.6c0 6 1.3 7.5 3 8zm-25.7-20c-5 1-9.3 2-9.3 7.5 0 4.7 3.7 6 6.4 6 6 0 12.2-3.7 12.2-10V44c-1.4 1-3.6 1.8-9.3 2.6zm67.3 22v-31c0-3.7-.2-10-9-10-6 0-10.7 4-10.7 11.7v29.2h-13.7v-51h13V25c2-3 6.3-8.6 16-8.6 10.3 0 18 5.8 18 17v35.2H520zm40 0h-14V0h14v37l17-19.3h17l-18.4 19.7 19 31H578L565.6 47l-5.7 5.8v15.8zm61.3 1.3c-14.7 0-26-7-26-27.8 0-6 2.2-25.7 25-25.7 10.3 0 24.5 4.8 24.5 28v2.3H609c.3 3.8 1 12.4 12 12.4 4 0 7.8-2 9-5.6h14C640.6 66 630 70 621.3 70zm9.3-32c-.8-8-6.2-10.5-10.6-10.5-6.6 0-10 4-10.8 10.7h21.3zm55.7 30.7v-31c0-3.6-.2-10-9-10-6 0-10.7 4-10.7 11.8v29.2H653v-51h13v7.5c2-3 6-8.7 16-8.7s18 5.8 18 17v35.2h-13.7z"/>
</svg>
