<svg xmlns="http://www.w3.org/2000/svg" viewBox="0 0 180 22">
  <path d="M93.6 4.2V0h-15v21.3h15V17h-9.8v-4.3h9V8.5h-9V4.2h9.8zM37 4.2V0H22v21.3h15V17H27v-4.3h9.2V8.5h-9V4.2H37zm74 4.6c0 1.4-.8 2-2 2h-5.3V4.2h4.4c.3 0 .5 0 .8.2 1.3 0 2 .6 2 2 .2 1 .2 1.7 0 2.6v-.2zm1.7 5.4l.7-.4c1.7-1 2.6-2.6 2.7-4.7V6c0-3.8-2.3-6-8-6h-9.4v21.3h5V15h4.4l3.5 6.3h5.4l-4.3-7zM65.3 0h-5v21.3h14.4V17h-9.4V0zM0 4.4h6.5v17h5v-17H18V0H0v4.4zM47 0h-5v21.3h14.4V17H47V0zm111.3 4.3h21.3V0h-21.3v4.3zm0 8.5h21.3V8.5h-21.3v4.3zm0 8.5h21.3V17h-21.3v4.3z" fill="#ED1C24"/>
  <path d="M124.3 4.3h21.3V0h-21.3v4.3zm0 8.5h21.3V8.5h-21.3v4.3zm0 8.5h21.3V17h-21.3v4.3z" fill="#F89C0E"/>
  <path d="M141.3 8.5h21.3V4.3h-21.3v4.2zm0 8.5h21.3v-4.2h-21.3V17z" fill="#1B54A2"/>
</svg>
