<svg xmlns="http://www.w3.org/2000/svg" viewBox="0 0 1764 397">
  <path fill="#1F2A44" d="M632 320.2c29.3 0 51.8-14.4 63-39.6.7-1.4.4-3-1-3.7l-17.4-8.6c-1.7-1-3.4 0-4 1.4-7.8 15.3-20 26.2-40.4 26.2-21.3 0-34.3-10.4-40.7-29-2.6-8-3.7-17.5-3.7-48.4 0-31 1-40.5 3.7-48.6 6.4-18.5 19.4-29 40.8-29 20.6 0 32.7 11 40.5 26.4.6 1.5 2.3 2.3 4 1.5l17.3-8.4c1.6-1 2-2.3 1.3-3.8-11.3-25.2-33.8-39.7-63-39.7-32 0-55.4 15.4-65.2 46.4-3.7 11.2-5 22.5-5 55.2 0 32.6 1 44.2 4.8 55.4 9.8 31 33.2 46.2 65.3 46.2zm141.6-4.7V299c0-1.7-1-2.8-3-2.8h-5.4c-9.5 0-13.8-3.8-13.8-15.4V123.4c0-1.8-1.2-3-3-3H730c-1.7 0-3 1.2-3 3V282c0 25 9.7 36.5 34 36.5h9.7c1.8 0 3-1.2 3-3zm136.2-19c1-1.4 1-3-.4-4l-11.8-10.7c-1.5-1.2-3-1-4.4.6-7.5 8.6-19 15.3-35.5 15.3-17 0-29.4-8-35-24-1.4-4.6-2.2-9.3-2.2-16.8 0-1.3.6-2 1.7-2h87.5c2 0 3.2-1 3.2-3 0-21-1.7-30.4-4.6-39.4-7.8-23.7-27.7-37.3-54.2-37.3-26.3 0-46.5 13.3-54.3 37.3-3 8.4-4.5 19-4.5 35s1.8 26 4.7 35c7.5 24 27.4 37.5 55.4 37.5 24.4.2 43.2-9.6 54.2-23.5zM822 236c-1 0-1.7-1-1.7-2 0-6.2.6-11 2-15.4 4.6-14 16.2-21.7 31.8-21.7 15.7 0 27 7.7 31.8 21.6 1.5 4.3 2 9.2 2 15.6 0 .8-.8 1.8-1.7 1.8h-64zm227 81.2c1.7 0 2.8-1.2 2.8-3v-91.7c0-34-15-47-54.2-47-20.5 0-36.7 5.4-47 13.5-1.3 1.2-1.6 2.3-.7 4l7.6 13.3c1 1.5 2.6 1.5 4 .3 8-5.7 18-9.8 33.5-9.8 25.8 0 33.4 8 33.4 27.2v10c0 1.3-.6 1.8-1.8 1.8H995c-33.6 0-54 13.6-54 42.8 0 28 20.4 41.6 46.6 41.6 21 0 35-7.8 41.3-18.2v12.2c0 1.7 1 3 3 3h17zm-55.5-17.8c-18.5 0-29-7.5-29-21.7 0-15.6 10.5-22.5 34.5-22.5h27.7c1.2 0 1.8.6 1.8 1.7V272c0 17-13.3 27-35 27v.2zm122.2 17.6c1.8 0 3-1 3-2.7v-75.8c0-24 8.6-40.4 29.7-40.4 8 0 15 2.7 21.3 6.7 1.5 1.2 3 1 4-.6l10.8-14c1-1.5.8-2.6-.6-4-7-6.4-17.5-10.5-28.5-10.5-18.5 0-31 8.7-37 20.5v-14.3c0-1.8-1-3-3-3H1097c-1.7 0-3 1.2-3 3V314c0 1.7 1.3 3 3 3h18.7zm201.7.3c1.7 0 2.8-1.2 2.8-3v-86.8c0-31.5-18-52-48-52-18.7 0-32.3 8-39 18.8v-70.8c0-1.8-1-3-3-3H1212c-1.8 0-3 1.2-3 3v190.8c0 1.7 1.2 3 3 3h18.4c1.8 0 3-1.3 3-3V232c0-20.6 13-34 31.7-34 21 0 31 13 31 35.3v81c0 1.7 1 3 3 3h18.4zm146 0c1.6 0 2.7-1.2 2.7-3v-91.7c0-34-15-47-54-47-20.5 0-36.7 5.4-47 13.5-1.3 1.3-1.5 2.4-.7 4l7.8 13.4c1 1.5 2.7 1.5 4 .3 8-5.7 18-9.8 33.6-9.8 25.7 0 33.3 8 33.3 27v10c0 1.4-.7 2-2 2h-31.4c-33.7 0-54 13.5-54 42.7 0 28 20.3 41.6 46.5 41.6 21 0 35-7.8 41.4-18.2v12.3c0 1.7 1.2 3 3 3h17zm-84.6-39.5c0-15.6 10.5-22.5 34.5-22.5h27.7c1.2 0 1.8.6 1.8 1.7v15.3c0 17-13.3 27-35 27-18.5 0-29-7.3-29-21.5zm235.2 39.4c1.8 0 3-1.2 3-3V181.5c0-1.7-1.2-3-3-3h-18.4c-1.8 0-3 1.3-3 3v82c0 21-12.3 34.2-31 34.2-20.6 0-30.7-13-30.7-35.6v-80.4c0-1.7-1.4-3-3-3h-18.6c-1.7 0-3 1.3-3 3V268c0 31.4 17.8 52.2 48 52.2 18 0 31-7.5 38.2-19v13c0 1.7 1 3 3 3h18.4zm150-42.3c0-22.5-13.6-36.7-41.6-39.3l-14.4-1.4c-20.5-2-27.2-7.8-27.2-18.8 0-11.3 9-19 26.3-19 14.4 0 28.5 5.4 37.5 11.2 1.4 1 3 1 4-.6l9.8-12.3c1-1.5 1-3.2-.6-4-11.5-8.7-28.8-15.4-49-15.4-32.7 0-51.4 16-51.4 42.2 0 22.6 14 36.2 41.3 39l14.7 1.5c21.6 2.4 26.8 8.5 26.8 19.5 0 12.4-10 21-30.2 21-16.7 0-32.3-7-42.7-15.8-1-1.2-3-1.2-4 0l-12 12.7c-1 1-1 3 0 4 11.5 10 30.4 20.8 57.3 20.8 36 0 55.7-18.2 55.7-45.3zM275 0L0 158v180l275 59V0z"/>
  <path fill="#EAEAEA" d="M295 24v359l110-41V143"/>
</svg>
